<svg xmlns="http://www.w3.org/2000/svg" viewBox="0 0 750 500" preserveAspectRatio="xMinYMin meet" xmlns:xlink="http://www.w3.org/1999/xlink"><path fill="#c60b1e" d="M0 0h750v500H0z"/><path fill="#ffc400" d="M0 125h750v250H0z"/><g stroke="#000" stroke-width=".4"><g stroke-width=".3"><path fill="#ad1519" d="M168 222.2h-.8l-1-1-.8-.6-.6-.8s-.8-1.2-.4-2c.3-1 1-1.3 1.4-1.6.5-.3 1.6-.6 1.6-.6l1-.4 1.4-.3.6-1h9.5l2 1h2l1 1v2l-1 1-1 1h-2c-1 0-5-1-8-1s-8 1-8 1z" stroke-linejoin="round"/><g fill="#c8b100"><ellipse cx="175.7" cy="215.7" rx="1.4" ry="2.5"/><ellipse cx="175.7" cy="215.7" rx=".6" ry="2.3"/><ellipse cx="175.7" cy="213" stroke="none" rx=".9" ry=".9"/><path d="M177 212.7v.6h-2.6v-.6h1v-1.3h-.7v-.5h.7v-1h1.2-.6v1h1"/><path fill="none" d="M176 212.2a1 1 0 1 1-.6 0"/><path d="M175.7 222H171l-.2-1-.3-1.3-.2-1.6c-1.3-1-2.5-2-3-2h.5c1.2 0 3.6 1 5.4 4l.5 1h4.4c2-3 5-4 6-4l1 1-3 3v4h-5z"/><path fill="none" d="M167.6 215.4c1-.5 3 1.2 4.7 3.8m11.5-3.8c-1-.5-3 1.2-4.7 3.8"/></g><g id="a" fill="#c8b100"><path d="M168.6 224.3c-.2-.6-.6-1-.6-1 2-.7 4.7-1 7.7-1s5.7.3 7.7 1c0 0-.3.2-.6.8 0 1-.4 1-.3 1-1.8 0-4-1-6.8-1s-5.5 1-7 1"/><path d="M175.7 226.7c2.4 0 5-.3 6-.6h.7c-1.5 0-4-1-6.7-1s-5.3 1-6.8 1c-1 0-1 0-1 1s0 1 1 1c1 1 3 1 6 1zm7.8-4.7l-.6-.4s-1 .3-2 .2c-1 0-1-1-1-1s-1 .7-2 .6c-1 0-1-.6-1-.6s-1 .5-2 .5-1-.8-1-.8l-1 .8-2-.5s0 .6-1 .7-2-.6-2-.6h-1c-1 0-2-1-2-1 2-1 4-1 7-1s5 0 7 1v-1z"/><path d="M175.7 219.5h.3v.4s.4 1 1 1c.5 0 1-1 1-1l.2-1c.2 0 .6 1 1.2 1s1-1 1-1l.4-1h.2s.4 1 1 1c.4 0 .7 0 1-1 0 0 .2 1 .6 1 0 0 .4 0 1-1l.7-1s-.5 1-1 1h-1c-.2 0-.4 0-.6-1h-.8c-1 0-2 0-2-1h-4c-1 0-1-1-2-1h-3c-1 1-1 1-2 1h-2c0 .2-1 1-2 1h-3l-1-1v-.5l1 1h1v-1 .2h1s1 0 1-1c0 1 0 1.3 1 1.3 0 0 1 0 1-1 0 0 0 1 1 1s1-1 1-1v-1z"/><path d="M175.7 222.2c-3 0-5.8.4-7.7 1 0 0-.3 0-.3-.2v-.3c2-.6 5-1 8-1s5.8.4 7.8 1l.2.3-.3.2c-2-.6-4.7-1-7.7-1z" stroke-linejoin="round"/><path d="M165.4 221l-.6-.7-.7-.4 1-1h1v-1h1v1z"/><path d="M167.3 220.2v.7h-1.7v-1l1-1h.7"/><path d="M165.4 220.8c.2-.2.4 0 .6 0 .2.2.2.4 0 .5h-.4c-.2-.2-.3-.4-.2-.6zm2.6.2c0-.3 0-.5.2-.5 0 0 .3 0 .3.2v.5c-.2 0-.4 0-.5-.3zm.7-1l.5.5 1.2-.6v-1h-2.2"/><path d="M170 217.8l-.6.6 1 1v.2l.3-.2.3-1.3h-1m2.4 2l-.3 1h-1 2l1 1"/><ellipse cx="170.5" cy="219.7" rx=".5" ry=".5"/><path d="M173 220c-.2-.3 0-.4 0-.4s.4 0 .4.3h-.2s-.3 0-.3-1zm.8-.8l.4.6 1.3-.4.2-.2-.2-.2-1.3-.4-.4.6"/><path d="M175.7 217.2l-1 .5.7 1.4.3 1h.2v-2h-1"/><path d="M177.6 219.2l-.4.6-1.4-.4v-.4l1.4-.4.4.6"/><ellipse cx="175.7" cy="219.2" rx=".5" ry=".5"/><path d="M178.5 220c0-.3 0-.4-.2-.4s-.3 0-.3.3h.2s.3 0 .3-1zm.5-.7l.3.6 1.3-1h.2l-1.3-1h-.5"/><path d="M181.3 217.8l.6.6-1 1-1 .2v-.2l-1-1.3h1m1 2l-1 1h-1 1v1"/><ellipse cx="180.8" cy="219.7" rx=".5" ry=".5"/><path d="M183.3 221v-.5c-.2 0-.4 0-.5.2 0 .2 0 .4.2.5 0 0 .3 0 .3-.3zm2.4 0l.7-.7.7-.4v-2 1zm-2-.8v.7h2v-1l-1-1h-1"/><path d="M185.7 220.8c0-.2-.3 0-.5 0s-.2.4 0 .5h.4c.2-.2.3-.4 0-.6z"/></g><g id="b" fill="none"><path fill="#ad1519" d="M168 224.3l.4-.5h.6l-.4.7-.5-.2"/><path fill="#058e6e" d="M170.8 223.8h-1c0-.3 0-.5.2-.5h.8l.7-.2.3 1s0 1-.2 1h-.7"/><ellipse cx="173.2" cy="223.3" fill="#fff" rx=".4" ry=".4"/><path fill="#ad1519" d="M175.7 223.5h-1l-.3-.3s0-.3.3-.3h2-1"/><ellipse cx="178.2" cy="223.3" fill="#fff" rx=".4" ry=".4"/><path fill="#058e6e" d="M180.5 223.8h1c0-.3 0-.5-.2-.5h-.7l-.7-.2c-1 0-1 1-1 1v1"/><path fill="#ad1519" d="M183.2 224.3l-.2-.5h-.7l.3.7.6-.2"/><path fill="#ad1519" d="M175.7 226.2c-2.5 0-4.7-.3-6.3-.7 1.6-.4 3.8-.7 6.3-.7 2.4 0 4.6.3 6.3.7-1.7.4-4 .7-6.3.7z" stroke-linejoin="round"/><path stroke-width="0" d="M176.8 226v-1m-.6 1v-1m-.4 1v-1m-.4 1.2V225m-.4 1.2V225m-.2 1.2V225m-.4 1.2V225"/><path stroke-width=".1" d="M174.2 226.2V225m-.6 1v-1m.3 1v-1m-1 1v-1m0 1v-1m-1 1v-1m0 1v-1m0 1v-1m-1 1v-1m-1 1v-1m-1 1v-1m-1 .8v-.6m0 .7v-1m-1 0v-1m0 0v-1m-1 0"/></g></g><g id="c"><g fill="#005bbf"><path d="M191.3 330.7c-1.6 0-3-.3-4-1-1-.4-2.3-.7-3.8-.7s-3 .3-4 .8-2.3 1-3.8 1c-1.6 0-3-.5-4-1s-2.3-.8-3.8-.8c-2 0-3 .3-4 .8s-3 1-4 1v2.3h4s2-1 4-1c1 0 2 1 3 1s2 1 4 1c1 0 3 0 4-1 1 0 2-1 4-1s3 0 4 1 2 1 4 1v-3z"/><path fill="#ccc" d="M191.3 333c-1.6 0-3-.2-4-.8-1-.5-2.3-.8-3.8-.8s-3 .3-4 .8c-1 .6-2.3 1-3.8 1-1.6 0-3-.5-4-1s-2.3-.8-3.8-.8c-2 0-3 .3-4 .8s-3 1-4 1v2.3c1 0 3-.3 4-1 1-.4 2-.7 4-.7 1 0 2 .3 3 .8s2 1 4 1c1 0 3-.4 4-1s2-.8 4-.8 3 .3 4 .8c1 .6 2 1 4 1V333"/><path d="M191.3 335.5c-1.6 0-3-.3-4-1-1-.4-2.3-.7-3.8-.7s-3 .3-4 .8-2.3 1-3.8 1c-1.6 0-3-.5-4-1s-2.3-.8-3.8-.8c-2 0-3 .3-4 .8s-3 1-4 1v2.3c1 0 3-1 4-1 1-1 2-1 4-1 1 0 2 0 3 1s2 1 4 1c1 0 3-1 4-1 1-1 2-1 4-1s3 0 4 1c1 0 2 1 4 1v-3"/><path fill="#ccc" d="M191.3 340.3c-1.6 0-3-.3-4-1-1-.4-2.3-.7-3.8-.7s-3 .3-4 1-2.3.7-3.8.7c-1.6 0-3-.4-4-1-1-.4-2.3-.7-3.8-.7-2 0-3 .3-4 .8-1 .6-3 1-4 1V338c1 0 3-.5 4-1 1-.6 2-1 4-1 1 0 2 .4 3 1 1 .5 2 1 4 1 1 0 3-.5 4-1 1-.6 2-1 4-1s3 .4 4 1c1 .5 2 1 4 1v2.2"/><path d="M191.3 342.7c-1.6 0-3-.3-4-.8-1-1-2.3-1-3.8-1s-3 0-4 1-2.3 0-3.8 0c-1.6 0-3-1-4-1-1-1-2.3-1-3.8-1-2 0-3 0-4 1h-4v-2c1 0 3-1 4-1 1-1 2-1 4-1h3c1 1 2 1 4 1 1 0 3 0 4-1s2-1 4-1 3 0 4 1h4v2z"/></g><g fill="#c8b100"><path d="M167 320.8v.6c0 1.5-1.2 2.6-2.8 2.6h23c-1.6 0-2.8-1-2.8-2.6v-.6H167z" stroke-linejoin="round"/><path d="M167.3 319.3H184c.6 0 1 .3 1 .7s-.4.8-1 .8h-16.7c-.5 0-1-.3-1-.8s.5-.7 1-.7zm-3 10.7H187v-6h-22.7v6z"/></g><path fill="#ccc" d="M167.6 318.3h16.2v-79.6h-16.3v79.6z"/><path fill="none" d="M179 238.8v79.5m2-79.5v79.5"/><g fill="#c8b100"><path d="M164.6 232.4H187v-6h-22.4v6z"/><path d="M167 236.3h17.5c-.6-.2-1-.7-1-1.4s.4-2 1-2H167c.4 0 1 1 1 1s-.6 1-1 1z" stroke-linejoin="round"/><path d="M167.3 236.2H184c.6 0 1 .3 1 .8 0 .4-.4.8-1 .8h-16.7c-.5 0-1-.4-1-.8 0-.5.5-.8 1-.8zm0-3.8H184c.6 0 1 .3 1 .6 0 .4-.4.7-1 .7h-16.7c-.5 0-1-.3-1-.7 0-.3.5-.6 1-.6z"/></g></g><g id="d" fill="#ad1519"><path d="M162.5 298.6c-2.3 1.3-3.8 2.7-3.6 3.3 0 0 0 1 1 1 1 1 2 3 2 4 1-1 2-3 2-5s-1-4-3-5z"/><path d="M200.4 268.5c-3.5-1.5-9.6-2.6-16.5-2.8-3 0-5 .2-8 .7-10 1.6-17 5.5-17 8.7v1l-4-8c-1-3 7-8 18-9 3 0 6-1 9-1 7 0 13 1 16 3v10" stroke-linejoin="round"/><path d="M167.5 278.5c-4.5-.3-7.6-1.6-8-3.4-.2-1 1.3-3 4-4l4 1v8m16.3-6c3 1 5 1 6 2 .6 1-2 4-6 6v-8"/><path d="M157.4 293.8c-.4-1.3 4-3.8 10.2-6 2.8-1 5.2-2.2 8-3.5 8.7-3.8 15-8.2 14.3-9.8h-1l1 8c0 1.6-5 6-13 9.7-3 1.2-8 3.2-11 4-5 1.7-9 4.6-9 5.7l-2-9z" stroke-linejoin="round"/></g><g stroke-width=".3"><path fill="#ad1519" d="M325 220.4l-1.4 1c-.6 0-1.2-.6-1.2-.6s-.5.5-1 .7c-.7 0-1.5-.7-1.5-.7l-2 1c-1 .2-1-.3-1-.3l-1 .7h-1l-1-.5-1-.7-1-.2V219s1-1 2-1.2c1-.2 1-.2 2 0 0-.5 2-.8 3-.8s2 0 3 .6c0-.5 1-.7 3-.7h5c1 0 2 1 2 1l-1 1h-2l-1-1h-1c-1 0-2-1-2-1s-1 1-2 0c-1 0-1-1-1-1s-1 1-2 1-1-1-1-1z"/><g fill="#c8b100"><ellipse cx="324.8" cy="216.2" rx="1.4" ry="2"/><ellipse cx="324.9" cy="216.2" rx=".6" ry="1.8"/><ellipse cx="324.8" cy="213.9" stroke="none" rx=".9" ry=".9"/><path d="M326 213.6v.6h-2.4v-.6h1v-1.3h-.7v-1 1h-1v1.3h1"/><path fill="none" d="M325 213a1 1 0 1 1-.4 0"/></g><g fill="none" stroke-width=".2"><path stroke-width=".3" d="M314.4 220l-.2-1c0-1.7 1.3-3 2.8-3 .5 0 1 .2 1.4.4" stroke-linecap="round"/><path stroke-width=".3" d="M319.5 218c-.2-.3-.3-.6-.3-1 0-1 1.2-2 2.6-2 .6 0 1.2.2 1.7.5m6.7 2.5l.2-1c0-1-1.2-2-2.6-2-.6 0-1.2.2-1.7.5"/><path stroke-width=".3" d="M335.2 220l.2-1c0-1.7-1.2-3-2.8-3-.5 0-1 .2-1.4.4" stroke-linecap="round"/><ellipse cx="313.6" cy="218.7" rx=".5" ry=".4"/><ellipse cx="313.7" cy="217.1" rx=".5" ry=".4"/><ellipse cx="314.8" cy="215.9" rx=".5" ry=".4"/><ellipse cx="316.1" cy="215.3" rx=".5" ry=".4"/><ellipse cx="317.6" cy="215.3" rx=".5" ry=".4"/><ellipse cx="318.4" cy="217.1" fill="#fff" rx=".5" ry=".4"/><ellipse cx="318.7" cy="215.6" rx=".5" ry=".4"/><ellipse cx="319.8" cy="214.6" rx=".5" ry=".4"/><ellipse cx="321.2" cy="214.2" rx=".5" ry=".4"/><ellipse cx="322.7" cy="214.2" rx=".5" ry=".4"/><ellipse cx="326.9" cy="214.2" rx=".5" ry=".4"/><ellipse cx="328.4" cy="214.2" rx=".5" ry=".4"/><ellipse cx="329.8" cy="214.6" rx=".5" ry=".4"/><ellipse cx="330.9" cy="215.6" rx=".5" ry=".4"/><ellipse cx="331.2" cy="217.1" fill="#fff" rx=".5" ry=".4"/><ellipse cx="332.1" cy="215.3" rx=".5" ry=".4"/><ellipse cx="333.5" cy="215.3" rx=".5" ry=".4"/><ellipse cx="334.9" cy="215.9" rx=".5" ry=".4"/><ellipse cx="335.9" cy="217.1" rx=".5" ry=".4"/><ellipse cx="336.1" cy="218.7" rx=".5" ry=".4"/></g><use x="149.2" xlink:href="#a"/><use x="149.2" xlink:href="#b"/></g><use x="149.2" xlink:href="#c"/><use xlink:href="#d" transform="matrix(-1 0 0 1 500.57 0)"/><path fill="#c8b100" stroke="none" d="M166.4 264.6c2-.7 3.3-1.5 2.7-3 0-1-1-1.3-3-.7l-2 1 3 6 1-1 1-1-1-3zm-1.2-3h.7c0-.3 1 0 1 .7 0 .5 0 1-1 1.5l-1 .4-1-2.5m7-2.5l-1 .2s-1 0-1 .2l1 6.2 4-.8v-.8l-3 .6-1-5.6m9 5.4l3-6.6h-1l-2 4.8-3-4.5h-1c-1 .2-1 0-1 .2l3 6.2h1m9-5v-1l-2-.4c-2-.2-3 .6-3 1.7-1 2.2 3 2 3 3.5 0 .7-1 1-2 1-1-.2-1-.7-1-1.3 0 .4 0 .7-1 1 0 .5 1 .6 2 .7 2 0 3-1 3-2 0-2-3-3-3-4s0-1 1-1c0 0 1 0 1 1m119 5l2-7h-1c0 2-1 3-1 5l-3-4h-2c1 2 3 4 4 6h1m6-7h-1v6h4v-1h-2v-5m7 1h2v-2l-6-1v1h2l-1 6h2l1-6m2 6h2l1-3v1l1 2h2-1l-2-3c1 0 2-1 2-2s0-1-1-2c0-1-1-1-2-1l-2.6-1-1.6 6m3-5c1 0 1 0 1 1-.5 1-1 1-2.4 1l1-3m9 8l-1 2h2l.5-8h-1l-6 4h.3l2-1 2.5 1zm-2-2l2-1v2l-2-1"/><path fill="#ad1519" stroke-width=".3" d="M249.7 182.7c6.6 0 12.5 1 16.4 2.5 3 1 6 1.8 9 2.2 3 .3 5 .4 7 .2 3 0 7 .8 11 2.5l8 5-1 2v4l-4 5-2 2-5 4h-3l-1 3-33-4-33 4v-2h-3l-5-4-2-2-4-5-1-4-1-1c2-1 5-3 8-5 4-1 8-2 11-2h7c3 0 6-1 8-2 4-1 10-2 16-2z"/><g fill="#c8b100"><path d="M225.3 191.4l1.4 1 2-3.3c-2-1-3.7-3-3.7-6v-1c.3-4 5.6-8 12.3-8 3.4 0 6.6 1 8.8 3l1-2c-2-1-5-2-9-2-8 0-14 5-14 10v1c0 3 1 5 3 7l-1 2"/><path d="M225.4 191.5c-2.6-2-4.2-4.7-4.2-7.6 0-4 2.2-7 5.5-9-2 1-3.3 4-3.5 6v1c0 2 1.2 5 3.2 7l-1 2"/><path d="M202.2 195c-1.5-1.8-2.4-4-2.4-6.2 0-1.4.4-2.8 1-4 2-4.4 8.8-7.6 16.7-7.6 2.2 0 4.2.3 6 .7l-1 1c-1.5-1-3.2-1-5-1-7.3 0-13.4 2-15 6-.6 1-1 2-1 3 0 2 1.2 4 3 5l-2.7 4-1.4-2 1.8-3z"/><path d="M205 180.5c-2 1.2-3.5 2.7-4.3 4.3-.5 1.2-1 2.6-1 4 0 2.3 1 4.4 2.5 6l-1.6 2.7c-1.5-2-2.4-4.3-2.4-6.7 0-4.2 2.7-8 6.7-10.3zm45-9.2c1.8 0 3.3 1 3.7 2.7.2 1.4.4 3 .4 4.6v1.3c1 3 1 6 2 8l-5 5-5-5c1-2 1-5 2-9v-1c0-2 0-4 1-5 1-2 2-3 4-3z"/><path d="M250 173c1 0 1.7.5 2 1.3 0 1.3.3 2.8.3 4.4v1c0 3.4.6 6.3 1.2 8l-3.5 3.5-3.5-3.4c.6-1.8 1-4.7 1.2-8v-1c0-1.7.2-3 .4-4.5 1-.8 1-1.4 2-1.4zm24.7 18.4l-1.4 1-2-3.3c2.2-1 3.7-3 3.7-6v-1c-.2-4-5.5-8-12.2-8-3.5 0-6.6 1-9 3v-2c2.4-1 5.5-2 9-2 7.7 0 13.7 5 14 10v1c0 3-1.2 5-3.2 7l1 2"/><path d="M274.6 191.5c2.6-2 4.3-4.7 4.3-7.6 0-4-3-7-6-9 2 1 3 4 3 6v1c0 2-1 5-3 7l1 2"/><path d="M297.8 195c1.5-1.8 2.4-4 2.4-6.2 0-1.4-.3-2.8-1-4-2-4.4-8.7-7.6-16.7-7.6-2 0-4.2.3-6 .7l1 1c1.6-1 3.3-1 5-1 7.3 0 13.4 2 15 6 .6 1 1 2 1 3 0 2-1.2 4-3 5l2.7 4 1.4-2-1.8-3z"/><path d="M295 180.5c2 1.2 3.5 2.7 4.3 4.3.6 1.2 1 2.6 1 4 0 2.3-1 4.4-2.5 6l1.6 2.7c1.6-2 2.4-4.3 2.4-6.7 0-4.2-2.6-8-6.7-10.3z"/><ellipse cx="250.1" cy="167.3" fill="#005bbf" stroke-width=".3" rx="4.4" ry="4.2"/><path stroke-width=".3" d="M249 155.5v2.3h-2.5v2.3h2.4v7h-4l-1 1v2h8v-1h-3v-7h2v-2h-2v-3h-2z"/></g><g fill="#fff"><ellipse cx="250" cy="188.9" rx="1.9" ry="1.8"/><ellipse cx="250" cy="185.4" rx="1.9" ry="1.8"/><ellipse cx="250" cy="181.6" rx="1.5" ry="1.4"/><ellipse cx="250" cy="178.2" rx="1.1" ry="1"/><ellipse cx="250" cy="175.2" rx=".9" ry=".8"/><ellipse cx="198.9" cy="198.7" rx="1.1" ry="1"/><ellipse cx="197.4" cy="196" rx="1.1" ry="1"/><ellipse cx="196.4" cy="192.9" rx="1.1" ry="1"/><ellipse cx="196.3" cy="189.6" rx="1.1" ry="1"/><ellipse cx="197.1" cy="186.4" rx="1.1" ry="1"/><ellipse cx="198.8" cy="183.4" rx="1.1" ry="1"/><ellipse cx="201.1" cy="181" rx="1.1" ry="1"/><ellipse cx="203.7" cy="179" rx="1.1" ry="1"/><ellipse cx="206.8" cy="177.4" rx="1.1" ry="1"/><ellipse cx="210" cy="176.2" rx="1.1" ry="1"/><ellipse cx="213.7" cy="175.5" rx="1.1" ry="1"/><ellipse cx="217.1" cy="175.4" rx="1.1" ry="1"/><ellipse cx="220.5" cy="175.5" rx="1.1" ry="1"/><ellipse cx="224.2" cy="190.3" rx="1.1" ry="1"/><ellipse cx="222.3" cy="187.7" rx="1.1" ry="1"/><ellipse cx="221.3" cy="184.8" rx="1.1" ry="1"/><ellipse cx="221.5" cy="181.6" rx="1.1" ry="1"/><ellipse cx="222.2" cy="178.4" rx="1.1" ry="1"/><ellipse cx="223.8" cy="175.5" rx="1.1" ry="1"/><ellipse cx="226.4" cy="173.5" rx="1.1" ry="1"/><ellipse cx="229.4" cy="171.8" rx="1.1" ry="1"/><ellipse cx="232.7" cy="170.8" rx="1.1" ry="1"/><ellipse cx="236.1" cy="170.2" rx="1.1" ry="1"/><ellipse cx="239.5" cy="170.3" rx="1.1" ry="1"/><ellipse cx="243" cy="170.9" rx="1.1" ry="1"/><ellipse cx="246.2" cy="172" rx="1.1" ry="1"/><ellipse cx="253.8" cy="172" rx="1.1" ry="1"/><ellipse cx="257" cy="170.9" rx="1.1" ry="1"/><ellipse cx="260.5" cy="170.3" rx="1.1" ry="1"/><ellipse cx="263.9" cy="170.2" rx="1.1" ry="1"/><ellipse cx="267.3" cy="170.8" rx="1.1" ry="1"/><ellipse cx="270.6" cy="171.8" rx="1.1" ry="1"/><ellipse cx="273.6" cy="173.5" rx="1.1" ry="1"/><ellipse cx="276.2" cy="175.5" rx="1.1" ry="1"/><ellipse cx="277.9" cy="178.4" rx="1.1" ry="1"/><ellipse cx="278.6" cy="181.6" rx="1.1" ry="1"/><ellipse cx="278.7" cy="184.8" rx="1.1" ry="1"/><ellipse cx="277.7" cy="187.7" rx="1.1" ry="1"/><ellipse cx="275.8" cy="190.3" rx="1.1" ry="1"/><ellipse cx="279.6" cy="175.5" rx="1.1" ry="1"/><ellipse cx="282.9" cy="175.4" rx="1.1" ry="1"/><ellipse cx="286.4" cy="175.5" rx="1.1" ry="1"/><ellipse cx="290" cy="176.2" rx="1.1" ry="1"/><ellipse cx="293.2" cy="177.4" rx="1.1" ry="1"/><ellipse cx="296.4" cy="179" rx="1.1" ry="1"/><ellipse cx="299" cy="181" rx="1.1" ry="1"/><ellipse cx="301.2" cy="183.4" rx="1.1" ry="1"/><ellipse cx="302.9" cy="186.4" rx="1.1" ry="1"/><ellipse cx="303.7" cy="189.6" rx="1.1" ry="1"/><ellipse cx="303.6" cy="192.9" rx="1.1" ry="1"/><ellipse cx="302.6" cy="196" rx="1.1" ry="1"/><ellipse cx="301.1" cy="198.7" rx="1.1" ry="1"/></g><g fill="#c8b100"><path d="M250.2 226.2c-12.3 0-23.3-1.5-31-3.8-.7-.2-1-.8-1-1.3 0 0 .3-1 1-1 7.7-2 18.7-4 31-4 12.2 0 23.2 2 31 4 .6 0 1 1 1 1 0 1-.4 2-1 2-7.8 3-18.8 4-31 4"/><path d="M250 216c-12.3 0-23.5 1.7-31.3 4 .6-.2.6-1-.2-3-1-2.6-2.5-2.5-2.5-2.5 8.6-2.6 20.7-4.2 34-4.2 13.6 0 25.7 1.6 34.4 4.2 0 0-1.5 0-2.5 2.4-1 2-1 2-1 3-8-3-19-4-32-4"/><path d="M250 210.3c-13.3 0-25.4 1.6-34 4.2-.6.2-1.2 0-1.4-.6s0-2 .7-2c8.7-3 21-5 34.8-5 14 0 27 1 35 4 1 0 1 1 1 1h-1c-8-3-20-5-34-5"/><path d="M250.2 199.8l1.2.2c-.2.5-.2 1-.2 1.6 0 2.6 2.2 4.7 5 4.7 2 0 4-1.4 4.6-3.2 0 0 .4-1 .7-1 0 0 0 2 .2 2 .3 3 2.4 4 5 4s4.8-2 4.8-4l1.5-1 .8 2c-.3 1-.5 1-.5 2 0 3 2 5 4.7 5 1.7 0 3-1 4-2l1-1v2c0 2 .6 3 2 4 0 0 1.8 0 4-2l3.6-3 .2 2s-2 3-4 4c-1 1-2.8 1-4.2 1-1.4 0-2.4-1-3-3-1 1-2.2 1-3.5 1-2 0-5-1-6-4-1 2-3 3-5 3s-4-1-5-3c-1 1-3 2-5 2s-4-1-5-3c-1 2-3 3-6 3-2 0-3 0-5-2-1 2-3 3-5 3s-4-1-5-2c-1 3-3 4-6 4-1 0-2 0-3-1 0 2-1 3-3 3-1 1-3 0-4-1-2-1-4-4-4-4l1-2s1 2 4 4 4 2 4 2c2 0 2-2 2-3v-1l1 1c1 1 3 2 4 2 3 0 5-2 5-4.2v-2l1-2 2 1.5v.7c0 2 2 4.4 5 4.4s5-1.4 5-4v-2l1 2c1 2 3 3 5 3s5-2 5-5c0-.5 0-1-1-2h1m-44 6s0-.4-1-1c0-.4-2-.5-2 0v.8s-1-2-2-3c-1-.6-3-.4-3-.4 0-1.7 2-3 3-3s2 .4 3 1v-1s2 0 2 1.4v3l1-2c1-1 2-2 3-2l2-1v2c1 0 3 0 4 .3 0 1-1 2-3 2.3l1 .5 1 1-1 .6h-5"/><path fill="#ad1519" d="M205.3 205c.5-.5 1.6-.4 2.3.3 1 .6 1 1.6.6 2-.5.7-1.6.6-2.4 0-.8-.8-1-1.8-.5-2.3"/><path fill="#fff" d="M216.4 206c-.3-1 0-1.7.6-2 .6 0 1.3.4 1.6 1.2s0 1.7-.6 2c-.6 0-1.3-.5-1.6-1.3"/><path d="M226 202c-.2-.4-.5-.8-.5-1.2s0-1 .2-1.3l-1.8-.6c-1-1-2-1-3-1h-1c-2 0-3 1-3 2 1 0 2 1 3 1v1l1-1 2-1 1-1"/><path d="M225.7 191.7c1 .6 2 1.7 2.3 3 0 0 0-.3.7-.6h1l-.2 2c0 1 0 2-.3 3l-.6 2H227c-.6 0-1 1-1.3 1 0 0-.7 0-1.2-1-.6-1-1-2-1.2-2l-.7-1h2c0-1 .3-2 1-3"/><path d="M229 201.4c.2-.4.3-.8.2-1.3s-.3 0-.6-1l1.4-1c.6 0 1.8-1 2.2-1h1v1l-.2 1c1.3 0 2.6 0 3.6 1-.7 1-1.8 2-3 2l.5 1 1 1h-5"/><ellipse cx="227.4" cy="200.4" fill="#ad1519" rx="2.2" ry="2.1"/><path fill="#fff" d="M237.8 201.8c-.2-1 .3-1.7 1-1.7.5 0 1 1 1.2 2 0 1-.3 2-1 2-.5 0-1 0-1.2-1"/><path d="M248.5 199.8c-.3-.3-.5-.8-.5-1.3s.2-1 .5-1.3c0 0-1-.7-2-1-.7-.5-2-.7-2.5-.8l-1.3-.2.2.6v1c-2 0-3 .8-4 1.7 1 1 2 1.7 4 1.8l-1 1-1 .6 1-1 2-1 2-1m1-11c1 1 2 2 2 4 0 0 0-1 1-1 0-1 1 0 1 0l-1 1-1 2-1 2c0-1-1-1-2-1s-1 0-2 1l-1-2-1-3-1-2h2c0-1 1-3 2-4m2 11v-1l-1-2 2-1c1-1 2-1 3-1h1l-1 1c1 0 2 1 3 2-1 1-3 1-4 1v1l-1-1s-2-.5-3-1l-2-1"/><ellipse cx="250.1" cy="198.5" fill="#ad1519" rx="2.2" ry="2.1"/><path fill="#fff" d="M262.6 201.8c0-1-.3-1.7-1-1.7s-1.2 1-1.3 2c0 1 .3 2 1 2 .6 0 1.2 0 1.3-1"/><path d="M271.4 201.4c-.2-.4-.3-.8-.3-1.3l1-1-1-1-2-1h-1l1 1v1c-1 0-2 0-3 1 1 1 2 2 3 2v2h6"/><path d="M274.7 191.7c-1 .6-2 1.7-2.3 3l-.7-.6h-1v2l.4 3 1 2h2c1 0 1 1 2 1l1-1 1-2 1-1h-2c0-1 0-2-1-3"/><path d="M274.2 202c.4-.4.6-.8.7-1.2 0-.5 0-1-1-1.3l2-.6c0-1 2-1 2-1h1-2c1 0 2 1 3 2-1 0-3 1-4 1v1l-1-1c-1 0-2-1-3-1l-1-1"/><ellipse cx="273" cy="200.4" fill="#ad1519" rx="2.2" ry="2.1"/><path fill="#fff" d="M284 206c.2-1 0-1.7-.6-2-.6 0-1.3.4-1.6 1.2-.3 1 0 1.7.5 2 .6 0 1.4-.5 1.7-1.3"/><path d="M292 206.3c0-.4.3-.7.7-1 .8-.7 1.8-.8 2.4-.3l1 .3s1-2 3-2.8 4-.5 4-.5c0-1.6-1-3-3-3-1 0-2 .5-2 1.2v-1s-1 .2-2 1.7 0 3 0 3v-2l-2-2-1-1v1h-4c1 1 2 2 3 2h6"/><path fill="#ad1519" d="M295 205c-.5-.5-1.5-.4-2.3.3-.8.6-1 1.6-.5 2 .5.7 1.6.6 2.3 0 .8-.8 1-1.8.6-2.3"/></g><g fill="none"><path fill="#ad1519" d="M250 224.6c-11 0-21-1.3-28.6-3.3 7.6-2 17.7-3.2 28.7-3.2 12 0 22 2 29 4-7 2-17 4-29 4z" stroke-linejoin="round"/><path stroke-width=".1" d="M258 224.3v-6m-3 6.2V218m-2.2 6.6V218m-1.8 6.6V218m-1.8 6.6V218"/><path stroke-width=".2" d="M247.5 224.6V218m-1.7 6.6V218"/><path stroke-width=".3" d="M244.3 224.6V218m-2.8 6.3v-6m1.3 6V218"/><path d="M239 224v-5.5m1.2 5.7v-6m-5 5.5V219m1.3 4.8v-5m1.2 5v-5"/><path stroke-width=".5" d="M234 223.7V219m-1 4.4V219"/><path stroke-width=".6" d="M231.7 223.3v-4m-2.5 3.7v-3.3m1.3 3.4v-3m-2.5 3v-3"/><path stroke-width=".7" d="M226.7 222.4V220m-1.3 2v-1.7"/><path stroke-width=".8" d="M224 222v-1.4"/><path stroke-width=".9" d="M222.7 221.7v-.7"/><path d="M220 221.7c8-2.2 18.4-3.6 30-3.6 11.8 0 22.4 2 30.2 4"/><path fill="#ad1519" d="M216.7 217.2l1.2-1.6 3 .4-3 2-2-.8"/><path fill="#fff" d="M224 215.3c0-.6.5-1 1-1s1.2.4 1.2 1c0 .5-.5 1-1 1s-1.2-.5-1.2-1"/><path fill="#058e6e" d="M233.6 215l-2.3.3c-.6 0-1.2-.3-1.3-1 0-.4.4-1 1-1l2.4-.3 2.4-.3c.6 0 1 .4 1.2 1s-.4 1-1 1l-2.4.4"/><path fill="#fff" d="M240.5 213.3c0-.5.5-1 1-1 .7 0 1.2.5 1.2 1 0 .6-.5 1-1 1-.7 0-1.2-.4-1.2-1"/><path fill="#ad1519" d="M250.2 214.2H247c-.8 0-1.3-.5-1.3-1 0-.6.4-1 1-1h6.7c.6 0 1 .4 1 1 0 .5-.4 1-1 1H250"/><path fill="#fff" d="M257.6 213.3c0-.5.5-1 1-1 .7 0 1.2.5 1.2 1 0 .6-.5 1-1 1-.7 0-1.2-.4-1.2-1"/><path fill="#058e6e" d="M266.7 215l2.3.3c.6 0 1.2-.3 1.3-1s-.4-1-1-1l-2.4-.3-3-.3c-1 0-1 .4-1 1 0 .5 0 1 1 1l2 .4"/><path fill="#fff" d="M274 215.3c0-.6.6-1 1.2-1s1 .4 1 1c0 .5-.4 1-1 1s-1-.5-1-1"/><path fill="#ad1519" d="M283.6 217.2l-1.2-1.6-3.4.4 2.7 2 2-.8"/></g><g stroke-width=".5"><path fill="#ccc" d="M250.5 344.3c-13 0-26-3.2-37-8.5-8-4-13.3-12-13.3-21.2v-33.3h100.4v33.3c0 9.2-5.3 17.2-13.4 21.2-11 5.3-23.6 8.5-36.7 8.5z"/><path fill="#ffd691" d="M253 329.6c2 .6 3 2 3 4 0 2.3-2.2 4-5.2 4s-5.5-1.7-5.5-4c0-1.8 1-3.8 3-4v-.5h-.8 1.3l.8 1h1.5l1 1v1h2v2"/><path fill="#058e6e" d="M250.3 340.3s-4-2.7-5.7-3c-2.2-.5-4.7 0-5.7-.2 0 1 1 1 1 2s2 2 3 2c3 1 6 0 6 0m1 0s2-2 5-3c3 0 5 0 6 1l-2 1c-1 1-2 2-4 2h-6"/><path fill="#ad1519" d="M250.7 337.3c-1-1-1.6-2.3-1.6-3.7 0-1.5 1-2.8 2-3.8 1 1 2 2.3 2 3.8 0 1.4 0 2.7-1 3.7"/><path fill="#058e6e" d="M249.7 342.7s.6-1.5.7-2.8c0-2-.2-3-.2-3h.8s.4 1 .4 2l-.2 2h-1.5"/><g fill="#c8b100"><path fill="#ad1519" d="M250.3 314.6c0 13-11 23.8-25 23.8S200 327.7 200 314.6v-33.4h50.3v33.4"/><path d="M200 314c.2 7 3 12.4 5.8 15.8v-49.5H200V314zm11 20.2c1.7 1 3.8 2.3 6 2.8v-57h-6v54.2zm11.3 4c2.3.3 4 0 5.8 0V280h-5v58.3zm11-1.2c2.3-.5 5-2 6-2.6V280h-5.8l-.2 57zm11.5-7.8c2.5-2 4.8-7 5.6-12.7V280h-5.7v49.2z"/></g><path fill="#ad1519" d="M300.6 281.2v33.4c0 13-11.2 23.8-25 23.8-14 0-25.3-10.7-25.3-23.8v-33.4h50.3"/><path id="e" fill="#c8b100" stroke="#c8b100" stroke-width=".3" d="M272.7 306l.2-.3-5-4.7-2 .7-3-3.4 1-1.4-6-6h-1v4h1v4h-1v4c1 0 1 1 2 1h3v-2h4v1zm-7-18.4v1.6h2.8v-1.6zm-7.3 20.4c.7 0 1.2-.5 1.2-1s-.5-1.2-1.2-1.2c-.6 0-1 .5-1 1s.4 1.2 1 1.2zm16-9.7l-1.7-.5v-4.5l1.7-.5v-2c-.8 0-1.5-.8-1.8-1.6H270l-.6 1.7h-4.7l-.5-2h-3.4l5.4 6 1.7-1 3 3-1 1 4 4zm-7.2-1.4l-1.3 1 1 2 1-1zm8 36c-1.3 0-2.3-1-2.5-2l-4.7-2 .2-2c1.3 0 2.6 1 4 1 .4-1 1-1 1.6-2v-5l-1.7-1v-4l2-1v-7l-4 4 1 1-3 3-1-1-3 3c1 1 1 2 0 3 1 1 2 2 4 3l-1 1-3-4c-1 0-2 0-2-1-1-1-1-3 0-4 0-1-1-3-1-5h2c0 2 1 3 1 4h2l3-4-1-2 3-4h2l4-4v-1h-3v2h-5v-1h-4l-1 1v4h-2v-4c-1 0-2-1-2-2s1-2.8 2-3v-4h-2v-5l1-.7v-4c-1-1-2-2-2-3 0-2 2-3 3-3s2 .3 2 1.3h3v-1h5l1 1.3h3c1-1 2-2 3-2v8h-1v2.4h1v22h-1v2h1zm-6-19l-1.2-1-1.8 2 1.3 1zm-10-19h-1.6v2h1.7zm9.3 11v-1h-3v1zM258 317l-2-.3v-4.5l1.2-.6v2.5c0 1 0 2 .3 3zm1-5.4l2 .3v4h-1.7l-.3-3zm11 16.8l.2-1.7c-1.5-.4-3-1-4-2l-1.4 1c1.6 1 3.3 2 5 2.7zm-1 1.5l-1.3 1-4-2v-2l5 3z"/><use xlink:href="#e" transform="matrix(-1 0 0 1 550.43 0)"/><path fill="#058e6e" stroke="none" d="M272.6 307c0-1.5 1.2-2.7 2.7-2.7s2.8 1.2 2.8 2.6c0 1-1 2-2 2s-2-1-2-3"/><g fill="#c8b100"><path fill="#ad1519" d="M200 281.3h50.3v-55.8H200v55.8z"/><path d="M217.3 238.4h-1v-1H215v3.8h1.6v2.5H213v7.4h1.8v15H211v8h28.5v-8h-3.7v-15h2v-7H234v-2h1.6v-4H234v1h-1v-1h-1.5v1h-1.2v-1H229v4h1.5v3H227v-8h2v-4h-2v1h-1v-1h-1.5v1h-1v-1h-1.8v4h2v8H220v-3h1.7v-4H220v1h-.8v-1h-2v1zm-6.2 35h29m-28-1.7h28m-28-2h28m-29-1.7h29m-28-2h29m-24-1.7h21m-21-2h21m-21-2h21m-21-1.8h21m-21-1.8h21m-21-2h21m-21-1.7h21m-23-2h25m-25-1.7h25m-25-2h25m-25-1.7h25m-21-2h17m-11-1.6h4m-3-2h4m-3-2h4m-3-2h4m-5-2h7m-12 8h4m-5-2.8h7m-7 34v-2m0-1.8V268m-2 1.8v2m4 0v-2m2 3.7v-1.8m0-2V268m0-2v-1.7m0-2v-2m-2 7.7v-2m-3 2v-2m7 0v2m2-2v-1.7m-5-2v2m4-2v2m4-2v2m-2-2v-2m2-1.8v2m0-5.7v2m-2-3.8v1.8m2-3.7v2m-3-2v2m-4-2v2m-2-3v2m4-1v2m4-1v2m2-3v2m-3.2-2v2m-4-2v2m-2-4v2m7-2v2m-3-6v2m16-2h-5m5-2h-7m7 34v-2m0-2v-2m2 2v2m-3.6 0v-2m-1.5 3v-2m0-2v-2m0-2v-2m0-2v-2m1.5 8v-2m4 2v-2m-7 0v2m-2-2v-2m5-2v2m-3.8-2v2m-3-2v2m2-2v-2m-2-2v2m0-5v2m2-4v2m-2-4v2m4-2v2m4-2v2m1.4-3v2m-4-1v2m-4-2v2m-2-3v2m3.7-2v2m3.3-2v2m1.2-4v2m-7-2v2m3-5v1m-7 19v-2m0-6v-2m0 6v-2m0-5v-2m0-2v-2m0-3v-2m0-2v-2m-9 5h3.2m4-5h3m3 5h3.7"/><path d="M230 273.5v-4.8c0-1-.4-3.7-4.8-3.7-4.2 0-4.6 2.8-4.6 3.7v4.8h9.5z"/><path d="M222.2 269l-2.3-.3V266l2 1-1 1.2zm3.8-2.4l1.3-2c-.5-.3-1.4-.5-2-.5-.6 0-1.5 1-2 1l1.2 2h1.6zm2.4 2.4l2.3-.3c0-1-.2-2.3-1-2.8l-2 1c.3 0 .7 1 .7 1zm-6.7-8.2v-5c0-1.4-1-2.6-2.5-2.6s-2.5 1.2-2.5 2.5v5h5zm7.3 0v-5c0-1.4.8-2.6 2.4-2.6 1.6 0 2.6 1.2 2.6 2.5v5h-5zm-9-12.5l.3-4.6H216l.4 4.7h3.7zm7 0l.5-4.6H223l.4 4.7h3.7zm3.5 0l-.5-4.6h4.7l-.5 4.7h-3.7z"/><path fill="#0039f0" stroke="none" d="M228.4 273.5v-4c0-.8-.4-3-3.2-3-2.5 0-3 2.2-3 3v4h6.2zm-7-13V256c0-1.2-.8-2.3-2-2.3s-2.3 1-2.3 2.3v4.4h5zm8 0V256c0-1.2.7-2.3 2-2.3 1.4 0 2 1 2 2.3v4.4h-4z"/></g><path fill="#ccc" d="M250.3 281.3h50.3v-55.8h-50.3v55.8z"/><path fill="#db4446" stroke-width=".4" d="M276 239.3v-1h-2.4s-1.6-.7-2.4-1.4c-.8-1-1-2-1.7-2-1.3-1-2.4 0-2.4 0s2 0 2 1 2 1 2 1h5z"/><g fill="none" stroke-width=".4"><path fill="#ed72aa" d="M283.5 237v1.4c0 .7-.2 1.2 0 1.6l.2 1c.2.2.2 1 .2 1l-1-.7-1-.4v2l1 1v1l-1-1c-1 0-1-1-1-1v1l-1 1-1-1-2-1v4l-1-1-1-1v1s0 2 2 4c1 1 2 4 5 3s2-5 1-7-1-4-1-5v-7l1-3s1 0 1-1v-1 2s0-1 1-2l2-2v-1s0 2-1 3l-2 2h2l-1 1c-1 1-1 1-1 2s-1 1-2 2-1 4.2 0 5c0 .2 2 5 2 6s0 3-2 5c-1 1-3 1-4 1s-1 1-1 3c0 1.2 0 2 1 2 0 .2 1 0 1 .3v1c0 .3-1 1.2-1 2-1 .4-1 2-1 2.3v1s1 1 0 1-1-.6-1-.5c-1 0-1 .5-1 .4-1 0-1 0-1-1v-1h-1s0 1-.6 1h-1v-1l1-1h1s-1 0-1-.7v-1s0-1 .6-1c.5-.8 1 0 1.3 0s1 0 1-1v-1c-1-.3-1-.3-1-1v-1 2.7l-1-1c-1 0-1-1-1-1v2l-1-1-1-1-1-2 .3-1h-1c-1 0-1 0-2 .4s0 1 .6 3v2l-1 1h-1s-.4-.4-1-.4h-1l-1-.7s-1 0-.6 1c0 0 0 1-.4 1h-1s-.8 0-.7-1v-1h-1v-2c1 0 2 .6 2 0v-1s-1 0 0-1 .3-.3 1 0c.3.6 0 1 .3 1.7s1 1 2 1 1 0 1-1v-2l-1 1v1-2l-1-1v2s-1-1-.8-2v-2c0-.5 1-2 2-2h5l-4-2c-1-.5-2-1.7-2-2l-1-2h-1l-1 1v1-2l-1 2-2 1v-2l-1 1s-2 0-2 1v1.4l-.7 1h-.6s.2-.4 0-1l-1 .6s-1 0-1-.8v-1s0-1 .4-1h2c0-.8-.4-1-1-1s-1-.6-.6-1v-.6c0-1 0-1 1-1 0 0 0 1 1 1h2l1-1 1-1-1-1c-.5 0-1-1-1-1l-2-1h-1l1-.6s.3-.4 1-.3h-2l-1-.5h-1 2s-1 0-1-.8l-1-1s0-.6-1-.6l-1 1s-1 0-1-1v-.6c0-.5-1-1 0-1h1c0-.5-.3-1-1-1 0 0-1-.6-.3-1v-.5s0-1 .5 0l1 1v-1c0-1 0-1 .5-1h1c.2 0 1 0 1 .6s-.5 1-.8 1c0 1-1 1 0 2 0 1 0 1 1 2s1 0 2 .4l2 2 1 .6h4s1-1 1-2c-1-1-2-1-2-2s0 0 1 0 1.2 0 2-1c0-1 0-1-1-2-1 0-2 0-2-1 0 0-1-1 0-1h3s0-.4 1-1h2l3 2 2 2"/><path d="M269 243.4s-.8.2-1 .7l-.4 1h1.5l2 1h1v2c0 1 1 1 0 1v2h1c1 0 2 0 2-1l1-1v3h1c1 0 1 0 1-1l1-1v1l1 2s0-1 1-1l1-1v-1 1m-11 1l1-1 1-1h1m1 5l2-1c1 0 1-1 1-1"/><path stroke-width=".3" d="M282.6 241l-.5-.7v-.5"/><path d="M278.3 257.4s2 1.3 2 2.3c0 1-1 2.4-1 2.4"/></g><path stroke-width=".3" d="M273 236.2v-.6c-.2 0-.3-.3-.3-.3s1 0 1 .3-.4.3-.5.4v.2z"/><path stroke-width=".1" d="M277 234.8v-.4s.8 0 1 .3c.7.4 1 1 1 1l-.8-.3h-.5c-.2 0-.3 0-.3-.2v-.3l-.3-1z"/><path stroke-width=".3" d="M273 240l.4-.4.3.5h-.6m1 0h1l1 1h-1m0-3l1 1v1-1m1 0l1 1v1"/><path fill="#db4446" stroke-width=".4" d="M262 236l.7.5h1v-1c-.2-1-1.3-1.3-1.3-1.3s.3.7 0 1c0 .5-.5 1-.5 1zm-2.4 1s-.4-.6-1.3-.5c-1 0-1.5.8-1.5.8h1.2c.4.3.5 1 .5 1l.7-.6.4-.6zm-1 3.3s-1 0-1.3.5c-.4.5-.4 1.4-.4 1.4s0-.5 1-.5l1 .2-1-1-1-1zm2.4 10s-.4-.4-1-.3c-.8.2-1.3 1-1.3 1h1c.3 0 .6.4.6.4l.4-.5.4-1zm-.8 3s-.6 0-1.2.4c-.5.4-.5 1.2-.5 1.2s.5-1 1-1h.8v-1c.2-1 0-1 0-1zm1.5 2.7s0 1 .3 1.4c.4.5 1 .5 1 .5l-.2-1c0-1 .4-1 .4-1s-.4-1-.7-1h-.8zm7.3 7s-.5-.5-1.2-.5-1.5.7-1.5.7 1 0 1.2.2l.4.7zm-2.2 3s-1-.2-1.4.3c-.4.5-.4 1.3-.4 1.3s.6-.6 1-.5l1.2 1-.2-1h-.2zm2 3s-.4.5 0 1 1 .8 1 .8-.3-.4-.2-.8c0-.3.7-.8.7-.8l-1.5-.3zm12.4 1s-.8 0-1.2.2c-.5.3-.8 1.4-.8 1.4s.7-.6 1.2-.6c.6 0 1 .3 1 .3v-.7l-.2-.5zm.4 3s-.6.7-.4 1.3l.7 1s-1-.7 0-1c0-.3 1-.3 1-.3l-1-.5-1-.4zm3.2 1s-.4.8.2 1.3c.6.5 1 .6 1 .6s-.3-1-.2-2c.2-1 .6-1 .6-1l-1-1h-.6z"/><g fill="#c8b100" stroke-width=".3"><path d="M283 232.7h-.4l-.3.4c-.2 1-.6 1-.8 1h-.7c-.2 0-.3 0 0-1h-.4v1c-.3 1-.6 1-.8 1h-.3c-.5 0-.7-1-.8-1v1c0 1-.3 1-.3 1 .7 1 1.8 1 3 2l2.3 2h2.7-1.7s-.2 0 0 0h.2-1.4s-.2 0 0 0h-.5c-.3 0-.4 0-.2-1h.4z"/><path fill="#000" stroke-width=".1" d="M280.6 233.4h.3v.2h-1v-.2zm1 .8l-.4-.3v-1h.8-.4m-1.8-2h-.2v-1h.3-1m-1-1h-1zm4 3v-1h-1zm0 0v-1h-1m1 1z"/><path d="M281.4 230.4h-.6v1l1-.5-.4-1"/><path d="M281.4 230.4h-.6v1l1-.5-.4-1"/><path d="M279.8 230.8v.6h1l-.5-.8-.5.2"/><path d="M281.7 232l-.5.2-.5-.7v-.2h1v.6"/><path d="M280.5 231.3c0-.2.3-.2.4 0v.2s-1 .2-1 0v-.2zm-2-1l-.4-.7v-.4s1-.2 1 0c1 .4 0 1 0 1z"/><path d="M279.4 230.7l-.4.3-.7-.6v-.2h1v.5"/><path d="M278.2 230.3c0-.2.2-.2.3-.2 0 0 .2 1 0 1h-.2zm5.5 1.5h-.6v.8l1-.3v-.5m-2 .2v.6l1 .2v-1 .2"/><path d="M283.7 233.4l-.5.2-.4-.8v-.2l1 .2v.6"/><path d="M282.6 232.5h.4c.2 0 .2.3 0 .4s-.2 0-.3 0c0-1-.2-1 0-1zm3 1v.7l-.7.3h-1v-1"/><path d="M285.5 235.2h-.6l-1-.7v-.2l1 .4-1 .5m-1-1.5l-1 .5 1 .3v-1l-1 .2"/><path d="M285 234.6v-.4h-.5v.4h.4zm1.3 1.8h.8l1 .4v-.8c0-.3-1 .2-1 .2v.2z"/><path d="M285.8 235.5l-.3.5.7.5h.2v-1h-.7"/><path d="M286.4 236.5s.2-.2 0-.3h-.2l-.2.3h.4z"/></g><g stroke-width=".6"><ellipse cx="250.4" cy="281" fill="#ad1519" rx="16.3" ry="18.3"/><ellipse cx="250.4" cy="281" fill="#005bbf" rx="11.4" ry="13.4"/><g id="f" fill="#c8b100" stroke-width=".3"><path d="M245 271.7s-1.3 1.5-1.3 3c0 1.3.6 2.4.6 2.4h-1.5c-.8 0-1.5 1-1.5 2l.3 1 .5 1h1c1 0 1 1 1 1v1h-1v1h1v2h1l1 1 1-1 1 1-1-2h2v-1h-2l1-1s1 0 1 1l1-1 1-1c0-1 0-1-1-1s-1 1-1 1v-3c0-1-1-3-1-3z" stroke-linejoin="round"/><path d="M243 281h4.2v-1H243v1z"/></g><use x="10.6" xlink:href="#f"/><use x="5.3" y="9.1" xlink:href="#f"/></g></g></g></svg>
