<svg xmlns="http://www.w3.org/2000/svg" viewBox="0 0 1200 270.6" preserveAspectRatio="xMaxYMax meet"><path fill="#ff7100" fill-rule="evenodd" d="M874 .3L899 51l-24.5 49H1200V0z"/><path fill="#007e5f" fill-rule="evenodd" d="M0 0c175 0 225 100 301.7 100h275l24.8-49.6-25-49.8S207 0 0 0z"/><path fill="#fca94f" fill-rule="evenodd" d="M576.6.6l25 49.8-25 49.6h298L899 51 874 1 576.6.6z"/><path fill="#fff9e1" d="M404.5 49q1 .2 1.6 1 .5.8.5 3.6 0 2-.4 3.3-.4 1-1.6 1.7-1.2.6-3 .6-2.2 0-3.4-.7-1.2-.7-1.5-1.7-.4-1.2-.4-3.7V52h4.5V56q.3.3.8.3t.6-.4v-3-1.6q-.4-.5-.8-.7h-1.7V48h2q.3-.3.4-.7V45 44q-.3-.3-.7-.3-.4 0-.6.4-.2.2-.2 1.2v1.5H396V45q0-2.4 1.2-3.3 1.2-1 3.7-1 3 0 4.3 1.3 1 1.3 1 3.5 0 1.5-.3 2.2-.4.6-1.5 1.2zM416.6 44.4v1.3q.4-.8 1-1.2.8-.4 1.7-.4 1 0 2 .6.6.6.8 1.4.3.8.3 2.7V59H418V48.7q0-1.5-.2-1.8 0-.3-.6-.3-.4 0-.6.4v12H412V44.3h4.6zM434 49.5V53q0 2-.3 3-.2 1-.8 1.7-.8.7-1.8 1-1 .5-2.3.5-1.6 0-2.6-.3-1-.4-1.6-1-.6-.8-.8-1.7-.3-1-.3-2.8v-3.7q0-2 .5-3.2.4-1 1.5-1.8 1.2-.7 3-.7 1.5 0 2.5.5t1.7 1.2q.5.7.7 1.5.2.7.2 2.3zm-4.5-1q0-1.2-.2-1.5 0-.3-.5-.3-.4 0-.5.3v9.3q0 .3.5.3.4 0 .5-.3.2-.3.2-1.2v-6.6zM444.5 44.4l-2 14.5h-5.8l-2.3-14.6h4l1.3 10.6.4-5.7.6-5h4zM455.3 52h-5.8v3q0 1 .2 1.3 0 .3.5.3t.7-.4v-3.4h4.3v1q0 1.5-.2 2.2 0 .7-.7 1.6-.6.8-1.6 1.2-1 .4-2.4.4t-2.5-.4q-1-.4-1.7-1-.5-.8-.7-1.7-.2-.7-.2-2.4v-4.2q0-2 .6-3 .5-1 1.7-1.7 1.2-.6 2.7-.6 2 0 3 .8 1.3.7 1.8 2 .5 1 .5 3.2v2zm-4.5-2.5v-1V47q-.2-.3-.6-.3-.5 0-.6.3v2.5h1.2zM461 44.4v1.3q.5-.8 1.3-1.2.7-.4 1.6-.4 1.7 0 2.7 1.7.5-.8 1.3-1.2.7-.4 1.5-.4 1 0 2 .6.6.6.8 1.4.2.8.2 2.6V59h-4.3v-9.6V47q-.2-.3-.7-.3-.4 0-.6.4-.2.6-.2 2.4V59h-4.3v-9.3V47q-.2-.3-.7-.3-.3 0-.5.2-.2 0-.2.5v11.3h-4.3V44.5h4.4zM478.5 41.2v4.2q.6-.7 1.2-1 .7-.3 1.5-.3 1 0 1.6.4.7.3 1 .8.4.5.4 1v11q-.3.7-1 1.3-1 .6-2 .6-.8 0-1.4-.3-.7-.5-1.3-1.2l-.3 1h-4V41.3h4.3zm1.4 7.3q0-1-.3-1.5 0-.3-.5-.3-.4 0-.6.3v9.3q.2.3.6.3.4 0 .5-.3.2-.4.2-1.7v-6zM490.2 44.4l-.2 2q1-2.2 2.8-2.3v5.2q-1.2 0-1.8.4-.5.3-.7 1v8.3h-4.5V44.3h4.4zM504 52H498v4.3q.2.3.7.3.4 0 .5-.4.2-.3.2-1.4v-2h4.2v1q0 1.5-.3 2.2 0 .7-.8 1.6-.7.8-1.6 1.2-1 .4-2.5.4t-2.5-.4q-1-.4-1.7-1-.6-.8-.8-1.7-.3-.7-.3-2.4v-4.2q0-2 .5-3 .6-1 1.7-1.7 1-.6 2.6-.6 2 0 3 .8 1.3.7 1.8 2 .5 1 .5 3.2v2zm-4.5-2.5v-1q0-1.2-.2-1.5 0-.3-.5-.3-.4 0-.5.3v2.5h1.2zM706 41v11.6h1.2v3H706v3h-4.5v-3h-5.3v-3L700 41h6zm-4.5 11.6V45l-2 7.6h2zM716.6 44.2v1.3q.4-.8 1-1.2.8-.4 1.7-.4 1 0 1.8.4 1 .6 1 1.4.3.8.3 2.7v10.2h-4.5v-10-2q-.2-.2-.6-.2-.5 0-.6.4v11.7H712V44.2h4.6zM734 49.3v3.5q0 2-.3 3-.2 1-1 1.7-.5.7-1.5 1-1 .5-2.4.5-1.5 0-2.5-.3t-1.6-1q-.5-.7-.8-1.6-.3-.8-.3-2.7v-3.7q0-2 .4-3.2.6-1 1.7-1.8 1.2-.7 3-.7 1.4 0 2.5.3 1 .5 1.7 1.2.4.7.6 1.5.3.7.3 2.3zm-4.6-1v-1.5q-.2-.3-.6-.3-.4 0-.5.3-.2.3-.2 1.4v6.6q0 1 .3 1.3 0 .4.5.4.4 0 .5-.3v-7.8zM744.5 44.2l-2 14.5h-6l-2-14.5h4l1 10.6q.3-1.2.6-5.7l.5-4.8h4zM755.2 51.7h-5.7V56q.3.4.7.4.5 0 .6-.4.2-.3.2-1.4v-2h4.2V56q-.3.7-1 1.6-.6.8-1.5 1.2-1 .4-2.4.4t-2.5-.4q-1-.4-1.7-1-.5-.8-.7-1.7-.3-1-.3-2.6v-4.2q0-2 .6-3 .5-1 1.7-1.7 1-.6 2.7-.6 1.8 0 3 .6 1.3.7 1.7 2 .5 1 .5 3.2v2zm-4.4-2.4v-1-1.5q-.3-.3-.6-.3-.5 0-.6.3v2.5h1.2zM761 44.2v1.3q.5-.8 1.2-1.2.7-.4 1.7-.4 1.6 0 2.7 1.5.5-.8 1.2-1.2.6-.4 1.5-.4 1 0 1.8.4.8.6 1 1.4.2.8.2 2.6v10.3h-4.3v-9.5V47q-.2-.5-.7-.5-.5 0-.6.4-.3.4-.3 2.2v9.5h-4.3v-9.2V47q-.2-.5-.6-.5-.3 0-.5.2-.3.2-.3.6v11.3h-4.3V44.3h4.4zM778.5 41v4.2q.5-.7 1.2-1 .7-.3 1.5-.3 1 0 1.6.2.6.3 1 .8l.4 1V57q-.3.8-1 1.4-1 .6-2 .6-.8 0-1.5-.3l-1.2-1-.3 1h-4V41h4.3zm1.3 7.3v-1.5q-.2-.3-.7-.3-.3 0-.4.3V56q.2.4.6.4.4 0 .5-.3v-7.6zM790.2 44.2l-.2 2q1-2.2 2.8-2.3v5q-1.2 0-1.8.4-.6.3-.7 1v8.3h-4.6V44.2h4.5zM804 51.7h-6V55q0 .8.3 1 0 .4.5.4t.7-.4q.2-.3.2-1.4v-2h4.2v1q0 1.5-.3 2.2-.2.7-.8 1.6-.7.8-1.7 1.2-1 .4-2.4.4-1.5 0-2.6-.4-1-.4-1.6-1-.6-.8-1-1.7V49q0-2 .4-3 .5-1 1.7-1.7 1-.6 2.6-.6 2 0 3 .6 1.3.7 1.8 2 .5 1 .5 3.2v2zm-4.6-2.4v-1-1.5q-.2-.3-.6-.3-.4 0-.6.3v2.5h1.2zM1005.8 41v2.8h-5.5v3q1-1.2 2.7-1.2 1.8 0 2.7 1 1 1 1 4V53q0 2-.2 3-.2.8-.8 1.5-.6.8-1.6 1.2-1 .4-2.5.4-1.7 0-3-.5-1.3-.6-2-1.8-.4-1.2-.4-3.7v-1h4.5V55.7q.2.7 1 .7.3 0 .5-.2.2 0 .2-.3V50q0-1-.2-1.3-.2-.4-.7-.4-.3 0-.5.2l-.2.4v1H996l.3-9h9.5zM1016.7 44.2v1.3q.4-.8 1-1.2.8-.4 1.7-.4 1 0 2 .4.6.6.8 1.4.2.8.2 2.7v10.2h-4.4v-10-2q-.2-.2-.7-.2-.5 0-.6.4v11.7h-4.5V44.2h4.5zM1034 49.3v3.5q0 2-.2 3t-1 1.7q-.5.7-1.5 1-1 .5-2.4.5-1.5 0-2.6-.3-1-.3-1.5-1-.7-.7-1-1.6-.2-.8-.2-2.7v-3.7q0-2 .4-3.2.5-1 1.6-1.8 1.2-.7 3-.7 1.4 0 2.5.3 1 .5 1.7 1.2.6.7.8 1.5.2.7.2 2.3zm-4.5-1v-1.5q-.2-.3-.6-.3-.5 0-.6.3-.2.3-.2 1.4v6.6q0 1 .2 1.3 0 .4.5.4.3 0 .4-.3v-7.8zM1044.6 44.2l-2 14.5h-5.8l-2.3-14.5h4l1.2 10.6.5-5.7.5-4.8h4zM1055.4 51.7h-5.8V56q.3.4.7.4.5 0 .7-.4v-3.4h4.4v1q0 1.5-.2 2.2-.2.7-.8 1.6-.6.8-1.6 1.2-1 .4-2.4.4t-2.5-.4q-1.2-.4-1.8-1-.6-.8-.8-1.7-.2-1-.2-2.6v-4.2q0-2 .5-3t1.7-1.7q1-.6 2.7-.6 2 0 3.2.6 1.2.7 1.7 2 .4 1 .4 3.2v2zm-4.5-2.4v-1q0-1.2-.2-1.5 0-.3-.5-.3t-.6.3v2.5h1.2zM1061.2 44.2v1.3q.4-.8 1-1.2 1-.4 1.8-.4 1.8 0 2.8 1.5.5-.8 1.2-1.2.7-.4 1.6-.4 1 0 2 .4.6.6.8 1.4.2.8.2 2.6v10.3h-4.3v-9.5V47q-.2-.5-.7-.5-.5 0-.6.4v11.7h-4.4v-9.2q0-2.2-.2-2.6 0-.5-.5-.5-.4 0-.6.2l-.3.6v11.3h-4.2V44.3h4.4zM1078.6 41v4.2q.6-.7 1.2-1 .7-.3 1.5-.3 1 0 1.6.2.6.3 1 .8.3.5.3 1V57q-.3.8-1 1.4-1 .6-2 .6-.8 0-1.5-.3l-1.2-1-.3 1h-4V41h4.3zm1.4 7.3q0-1-.2-1.5 0-.3-.5-.3-.4 0-.6.3V56q.2.4.6.4.4 0 .5-.3.2-.3.2-1.6v-6zM1090.3 44.2l-.2 2q1-2.2 3-2.3v5q-1.3 0-2 .4-.4.3-.6 1v8.3h-4.5V44.2h4.3zM1104 51.7h-5.7V56q.2.4.6.4.4 0 .6-.4.2-.3.2-1.4v-2h4.2v1q0 1.5-.2 2.2 0 .7-.8 1.6-.6.8-1.6 1.2-1 .4-2.4.4t-2.5-.4q-1-.4-1.6-1-.7-.8-1-1.7-.2-1-.2-2.6v-4.2q0-2 .5-3t1.7-1.7q1.2-.6 2.7-.6 2 0 3 .6 1.3.7 1.8 2 .5 1 .5 3.2v2zm-4.5-2.4v-1-1.5q-.2-.3-.6-.3-.5 0-.6.3v2.5h1z" style="line-height:125%;-inkscape-font-specification:'Impact Condensed';text-align:center" font-stretch="condensed" font-family="Impact" letter-spacing="0" word-spacing="0" text-anchor="middle"/><path fill="#007e5f" d="M319 191l-9.4 5.4-9.4 5.4 9.4 5.4 9.3 5.5V205h262v7.7l9-5.5 9.3-5.4-9.4-5.4-9.4-5.4v7.3H319V191z"/><path fill="#007e5f" d="M341 214V233q0 1-.7 1.7-.5.8-1.4 1-1 .3-3 .3h-2.8V232h.8q.6 0 1-.2.3-.3.3-.7V214.2h5.7zM355.3 224.3v4.3q0 2.4-.2 3.6-.2 1-1 2t-2 1.5q-1.3.5-3 .5t-3-.4q-1.2-.4-2-1.2-.5-.8-.8-2-.3-1-.3-3.4v-4.5q0-2.5.4-4 .5-1.3 2-2.2 1.3-.8 3.5-.8 1.7 0 3 .5 1.4.6 2 1.5.8.8 1 1.8.3 1 .3 2.8zM350 223q0-1.4-.3-1.8 0-.3-.6-.3-.4 0-.5.2-.2.4-.2 1.7v8q0 1.2.2 1.6 0 .4.6.4t.7-.3q.2-.4.2-1.5V223zM369.5 218v17.8H364v-1.4q-.5 1-1.3 1.3-.8.5-2 .5-1 0-2-.5-.7-.4-1-1-.5-.8-.6-1.6v-15h5.4v12q0 2.2.2 2.6 0 .4.7.4.6 0 .7-.4V218h5.5zM377 218l-.3 2.4q1-2.6 3.4-2.7v6.3q-1.4 0-2 .4-.8.4-1 1V236h-5.6V218h5.5zM386.8 218v1.7q.5-1 1.4-1.5.8-.5 2-.5 1.4 0 2.2.7 1 .6 1.2 1.6.2 1 .2 3.4v12.4h-5.4v-12.3-2.2q-.2-.4-.8-.4-.6 0-.7.3-.3.5-.3 2.5v12h-5.4V218h5.5zM408 227.2h-7v4q0 1 .2 1.5 0 .3.6.3t.8-.5q.3-.4.3-1.8v-2.3h5v1.3q0 1.7-.2 2.6-.2.8-1 1.8-.7 1.2-2 1.7-1 .5-3 .5-1.6 0-3-.5-1.2-.5-2-1.4-.7-1-1-2-.2-1-.2-3v-5q0-2.5.6-3.8.6-1.4 2-2 1.5-.8 3.4-.8 2.2 0 3.7 1 1.5.7 2 2.2.7 1.3.7 4v2.2zm-5.4-3V223q0-1.3-.2-1.7 0-.4-.6-.4t-.7.2v3.1h1.6zm3.8-11l-4.5 3.6H399l2.4-3.6h4.8zM422 227.2h-7v4q0 1 .2 1.5.2.3.7.3.5 0 .7-.5.2-.4.2-1.8v-2.3h5V232.3q-.3.8-1 1.8-1 1.2-2 1.7-1.2.5-3 .5-1.7 0-3-.5t-2-1.4q-.8-1-1-2-.4-1-.4-3v-5q0-2.5.7-3.8.6-1.4 2-2 1.5-.8 3.3-.8 2.3 0 3.8 1 1.5.7 2 2.2.7 1.3.7 4v2.2zm-5.4-3V223v-1.7q-.3-.4-.7-.4-.7 0-.8.2v3.1h1.4zM434.2 218v1.6q.6-1 1.5-1.4 1-.5 2-.5 1.2 0 2 .7 1 .7 1.3 1.5.2.8.2 3v7.5q0 2.4-.3 3.4-.4 1-1.3 1.6-1 .6-2 .6t-2-.5q-1-.5-1.6-1.4v4h-5.3V218h5.5zm1.6 5.2q0-1.6-.2-2 0-.3-.6-.3t-.7.3q-.2.4-.2 2v7.3q0 1.6.3 2 0 .4.7.4.5 0 .6-.4.2-.3.2-1.8v-7.6zM448.4 218l-.2 2.4q1.2-2.6 3.4-2.7v6.3q-1.5 0-2.2.4-.7.4-.8 1-.2.8-.2 3.4v7H443V218h5.4zM465.2 227.2h-7v5.5q.3.3.8.3.6 0 .8-.5.2-.4.2-1.8v-2.3h5.2v1.3q0 1.7-.3 2.6-.3.8-1 1.8-.8 1.2-2 1.7-1 .5-3 .5-1.6 0-3-.5-1.3-.5-2-1.4-.7-1-1-2-.3-1-.3-3v-5q0-2.5.6-3.8.7-1.4 2-2 1.5-.8 3.4-.8 2.3 0 3.8 1 1.5.7 2 2.2.7 1.3.7 4v2.2zm-5.5-3V223v-1.7q-.3-.4-.7-.4-.6 0-.7.2-.2.3-.2 1.8v1.3h1.7zm3.8-11l-4.4 3.6h-2.6l2.3-3.6h4.8zM473.6 225v3.8h-7V225h7zM487 224.7h-5v-2q0-1-.3-1.5 0-.3-.6-.3-.4 0-.5.2-.2.3-.2 1.5v8.4q0 1 .3 1.5.2.5.7.5.5 0 .7-.5.2-.5.2-2v-2h4.8v3.2q-.3 1-1 2.2-.8 1-2 1.6-1.2.6-3 .6-2.3 0-3.7-.8-1.3-.8-2-2.2-.4-1.4-.4-4v-5q0-2.4.3-3.5.5-1.2 2-2 1.5-1 3.6-1 2 0 3.5 1 1.5.8 2 2.2.5 1.2.5 3.7zM501 224.3v4.3q0 2.4-.3 3.6-.3 1-1 2-1 1-2 1.5-1.3.5-3 .5-1.8 0-3-.4t-2-1.2q-.6-.8-1-2-.2-1-.2-3.4v-4.5q0-2.5.5-4 .6-1.3 2-2.2 1.3-.8 3.5-.8 1.8 0 3 .5 1.5.6 2.2 1.5.7.8 1 1.8.2 1 .2 2.8zm-5.5-1.4q0-1.4-.2-1.8 0-.3-.6-.3-.5 0-.6.2V232.5q.2.4.7.4.5 0 .6-.3.2-.4.2-1.5V223zM508.2 218v1.7q.5-1 1.4-1.5.8-.5 2-.5 1.3 0 2.2.7 1 .6 1.2 1.6.2 1 .2 3.4v12.4h-5.4v-12.3-2.2q-.2-.4-.8-.4-.6 0-.7.3-.2.5-.2 2.5v12h-5.3V218h5.5zM529.4 218v17.3q-.2.8-1 1.7-.8 1-2.2 1.4-1.4.5-3.5.5-2.6 0-4-1-1.7-.8-1.8-3.4h5.2q0 1.2 1 1.2.5 0 .7-.4v-3q-.6.7-1.4 1-.8.3-1.6.3-1.5 0-2.4-.6-1-.6-1.3-1.5-.4-1-.4-2.8v-6.5q0-2.6 1-3.7.8-1 2.6-1 1 0 2 .3.7.5 1.4 1.4l.4-1.4h5zm-5.4 4.7q0-1.2-.2-1.5 0-.3-.6-.3-.4 0-.6.2-.2.4-.2 1.5v7.6q.3.3.7.3.7 0 .8-.4.2-.4.2-2v-5.5zM536.8 218l-.3 2.4q1.2-2.6 3.5-2.7v6.3q-1.5 0-2.2.4-.7.4-1 1V236h-5.5V218h5.5zM553.5 227.2h-7v4q0 1 .2 1.5 0 .3.6.3t.8-.5q.4-.4.4-1.8v-2.3h5V232.3q-.3.8-1 1.8-.8 1.2-2 1.7t-3 .5q-1.7 0-3-.5t-2-1.4q-.8-1-1-2-.3-1-.3-3v-5q0-2.5.7-3.8.6-1.4 2-2 1.5-.8 3.4-.8 2.3 0 3.8 1 1.5.7 2 2.2.7 1.3.7 4v2.2zm-5.4-3V223v-1.7q-.2-.4-.7-.4-.5 0-.7.2v3.1h1.5zm-5.3-11h4.8l2.3 3.6H547l-4.3-3.6zM566.4 223.7h-4.8v-1q0-1.2-.2-1.5 0-.3-.7-.3-.4 0-.7.2-.2.3-.2 1v1l.8 1 2.3 1.2q2.3 1.2 3 2.2.8 1 .8 3t-.6 3.3q-.5 1-2 1.6-1.2.6-3 .6-2 0-3.6-.7-1.5-.6-2-1.7-.6-1-.6-3.4v-.8h4.8v1q0 1.5.2 2 .2.4.7.4.6 0 1-.3v-1.2q0-1.3-.2-1.6-.3-.4-3.2-2-2.4-1.3-3-2.4-.4-1-.4-2.6 0-2.2.5-3.2t2-1.6q1.2-.5 3-.5t3 .5q1.3.4 2 1 .6 1 .7 1.5.2.6.2 2v1z" style="line-height:125%;-inkscape-font-specification:'Impact Condensed';text-align:center" font-stretch="condensed" font-family="Impact" letter-spacing="0" word-spacing="0" text-anchor="middle"/><path fill="#fca94f" d="M619 191l-9.4 5.4-9.4 5.4 9.4 5.4 9.3 5.5V205h562v7.7l9-5.5 9.3-5.4-9.4-5.4-9.4-5.4v7.3H619V191z"/><path fill="#007e5f" d="M658.3 214V233q-.2 1-.7 1.7-.6.8-1.5 1-.8.3-2.7.3h-2.8V232h.7q.6 0 1-.2.3-.3.3-.7V214.2h5.8zM672.5 224.3v4.3q0 2.4-.2 3.6-.3 1-1 2-.8 1-2 1.5-1.3.5-3 .5t-3-.4q-1.2-.4-2-1.2-.6-.8-1-2-.2-1-.2-3.4v-4.5q0-2.5.6-4 .6-1.3 2-2.2 1.4-.8 3.5-.8 2 0 3.3.5 1.3.6 2 1.5.7.8 1 1.8.2 1 .2 2.8zM667 223V221q-.2-.3-.7-.3-.5 0-.6.2-.2.4-.2 1.7v8q0 1.2.2 1.6 0 .4.6.4.5 0 .6-.3V223zM686.7 218v17.8h-5.5v-1.4q-.4 1-1.3 1.3-1 .5-2 .5-1.2 0-2-.5-.8-.4-1.2-1-.4-.8-.5-1.6v-15h5.4v14.6q.2.4.8.4.6 0 .7-.4V218h5.5zM694 218v2.4q1-2.6 3.3-2.7v6.3q-1.5 0-2.2.4-.6.4-.7 1-.2.8-.2 3.4v7h-5.3V218h5.4zM704 218v1.7q.6-1 1.4-1.5 1-.5 2-.5 1.4 0 2.3.7 1 .6 1 1.6.4 1 .4 3.4v12.4h-5.4v-12.3-2.2q-.2-.4-.8-.4-.5 0-.7.3v14.5h-5.5V218h5.6zM725.2 227.2h-7v4q0 1 .2 1.5.2.3.7.3.7 0 1-.5v-4.1h5.2v1.3q0 1.7-.2 2.6-.2.8-1 1.8-.7 1.2-2 1.7-1 .5-2.8.5-1.8 0-3-.5-1.4-.5-2-1.4-1-1-1-2-.4-1-.4-3v-5q0-2.5.6-3.8.6-1.4 2-2 1.5-.8 3.4-.8 2.3 0 3.7 1 1.5.7 2 2.2.7 1.3.7 4v2.2zm-5.4-3V223q0-1.3-.2-1.7 0-.4-.6-.4-.5 0-.7.2v3.1h1.5zm3.8-11l-4.4 3.6h-2.8l2.4-3.6h4.8zM739.3 227.2h-7v4q0 1 .2 1.5 0 .3.6.3.7 0 1-.5.2-.4.2-1.8v-2.3h5V232.3q-.3.8-1 1.8-.8 1.2-2 1.7t-3 .5q-1.7 0-3-.5t-2-1.4q-.8-1-1-2-.3-1-.3-3v-5q0-2.5.5-3.8.6-1.4 2-2 1.5-.8 3.4-.8 2 0 3.6 1 1.5.7 2 2.2.7 1.3.7 4v2.2zm-5.4-3V223q0-1.3-.3-1.7 0-.4-.6-.4-.5 0-.6.2v3.1h1.5zM752.2 223.7h-4.8v-1q0-1.2-.2-1.5 0-.3-.7-.3-.4 0-.7.2-.2.3-.2 1v1l.8 1 2.3 1.2q2.4 1.2 3 2.2 1 1 1 3t-.7 3.3q-.5 1-2 1.6-1.2.6-3 .6-2 0-3.6-.7-1.5-.6-2-1.7-.6-1-.6-3.4v-.8h4.8v1q0 1.5.2 2 .2.4.7.4.6 0 .8-.3.3-.3.3-1.2 0-1.3-.3-1.6-.3-.4-3.2-2-2.3-1.3-2.8-2.4-.5-1-.5-2.6 0-2.2.5-3.2.6-1 2-1.6 1.3-.5 3-.5 2 0 3 .5 1.4.4 2 1 .7 1 .8 1.5.2.6.2 2v1zM770 223.7h-5v-1-1.5q-.2-.3-.8-.3-.4 0-.6.2-.3.3-.3 1v1l.8 1 2.5 1.2q2.3 1.2 3 2.2.8 1 .8 3t-.6 3.3q-.5 1-1.8 1.6-1.5.6-3.3.6-2 0-3.6-.7-1.3-.6-2-1.7-.4-1-.4-3.4v-.8h4.8v3q.3.4 1 .4.4 0 .7-.3.3-.3.3-1.2 0-1.3-.3-1.6-.3-.4-3.2-2-2.3-1.3-3-2.4-.4-1-.4-2.6 0-2.2.6-3.2.5-1 2-1.6 1.2-.5 3-.5t3 .5q1.3.4 2 1 .6 1 .7 1.5.2.6.2 2v1zM783.7 224.7h-5v-2q0-1-.3-1.5-.2-.3-.6-.3-.5 0-.7.2v9.9q0 1 .2 1.5.3.5.7.5.5 0 .7-.5.2-.5.2-2v-2h4.7q0 2-.2 3.2 0 1-1 2.2-.6 1-1.8 1.6-1.3.6-3 .6-2.4 0-3.7-.8-1.3-.8-2-2.2-.5-1.4-.5-4v-5q0-2.4.5-3.5.5-1.2 2-2 1.4-1 3.6-1 2 0 3.6 1 1.5.8 2 2.2.5 1.2.5 3.7zM791 214v3h-5.7v-3h5.6zm0 4v17.8h-5.7V218h5.6zM805 227.2h-7v4q0 1 .3 1.5 0 .3.6.3.5 0 .7-.5.3-.4.3-1.8v-2.3h5V232.3q-.3.8-1 1.8-.8 1.2-2 1.7t-3 .5q-1.7 0-3-.5t-2-1.4q-.8-1-1-2-.3-1-.3-3v-5q0-2.5.6-3.8.6-1.4 2-2 1.5-.8 3.4-.8 2.2 0 3.7 1 1.5.7 2 2.2.7 1.3.7 4v2.2zm-5.3-3V223q0-1.3-.2-1.7 0-.4-.6-.4-.7 0-.8.2v3.1h1.5zM812.4 218v1.7q.5-1 1.3-1.5 1-.5 2-.5 1.4 0 2.3.7 1 .6 1 1.6.4 1 .4 3.4v12.4H814v-12.3-2.2q-.3-.4-.8-.4-.6 0-.7.3-.2.5-.2 2.5v12H807V218h5.4zM827 215.6v2.8h1.5v3H827v9.4q0 1.8.2 2 .2.2 1.5.2v2.8H824q-1-.3-1.5-.8-.6-.6-.8-1.3v-12.4h-1.3v-3h1.2v-2.7h5.4zM835.2 214v3h-5.5v-3h5.5zm0 4v17.8h-5.5V218h5.5zM844 214v3h-2q-.2.2-.2 1v.4h2.3v3H843v14.4h-5.4v-14.5h-1v-3h1v-2.2q.2-.5.7-1l1.4-.7q1-.2 2.7-.2h2zM850.7 214v3H845v-3h5.7zm0 4v17.8H845V218h5.7zM865 218v20.4h-5.5v-4q-.8 1.2-1.4 1.5-.6.2-1.6.2-1.4 0-2.3-.7-1-.7-1.2-1.7-.3-1-.3-3.3v-8q0-1.7.2-2.6.3-1 1.2-1.6.8-.7 2-.7 1 0 2 .5.8.4 1.5 1.3V218h5.4zm-5.5 5q0-1.3-.2-1.7 0-.4-.6-.4-.5 0-.6.2v11.3q.2.4.7.4.5 0 .7-.4V223zM879.3 218v17.8h-5.5v-1.4q-.5 1-1.3 1.3-.8.5-2 .5-1 0-2-.5-.7-.4-1-1-.5-.8-.6-1.6-.2-.7-.2-3v-12h5.4v14.6q.3.4.8.4.6 0 .8-.4V218h5.5zM893.5 227.2h-7v4q0 1 .2 1.5 0 .3.6.3t.8-.5q.4-.4.4-1.8v-2.3h5V232.3q-.3.8-1 1.8-.8 1.2-2 1.7t-3 .5q-1.7 0-3-.5t-2-1.4q-.8-1-1-2-.3-1-.3-3v-5q0-2.5.7-3.8.6-1.4 2-2 1.5-.8 3.4-.8 2.3 0 3.8 1 1.5.7 2 2.2.7 1.3.7 4v2.2zm-5.4-3V223v-1.7q-.2-.4-.7-.4-.5 0-.7.2v3.1h1.5zM906.4 223.7h-4.8v-1q0-1.2-.2-1.5 0-.3-.7-.3-.4 0-.7.2-.2.3-.2 1v1l.8 1 2.3 1.2q2.3 1.2 3 2.2.8 1 .8 3t-.6 3.3q-.5 1-2 1.6-1.2.6-3 .6-2 0-3.6-.7-1.5-.6-2-1.7-.6-1-.6-3.4v-.8h4.8v1q0 1.5.2 2 .2.4.7.4.6 0 1-.3v-1.2q0-1.3-.2-1.6-.3-.4-3.2-2-2.4-1.3-3-2.4-.4-1-.4-2.6 0-2.2.5-3.2t2-1.6q1.2-.5 3-.5t3 .5q1.3.4 2 1 .6 1 .7 1.5.2.6.2 2v1zM925.3 227.2h-7v4q0 1 .2 1.5 0 .3.6.3.7 0 1-.5.2-.4.2-1.8v-2.3h5V232.3q-.3.8-1 1.8-.8 1.2-2 1.7t-3 .5q-1.7 0-3-.5t-2-1.4q-.8-1-1-2-.3-1-.3-3v-5q0-2.5.5-3.8.6-1.4 2-2 1.5-.8 3.4-.8 2 0 3.6 1 1.5.7 2 2.2.7 1.3.7 4v2.2zm-5.4-3V223q0-1.3-.3-1.7 0-.4-.6-.4-.5 0-.6.2v3.1h1.5zM932.8 215.6v2.8h1.5v3h-1.5v9.4q0 1.8.2 2 .2.2 1.5.2v2.8H929.7q-.8-.3-1.4-.8-.6-.6-.8-1.3v-12.4H926v-3h1.2v-2.7h5.4zM951.4 223.7h-4.8v-1q0-1.2-.2-1.5 0-.3-.7-.3-.4 0-.7.2-.2.3-.2 1v1l.8 1 2.4 1.2q2.3 1.2 3 2.2.8 1 .8 3t-.6 3.3q-.5 1-2 1.6-1.2.6-3 .6-2 0-3.6-.7-1.5-.6-2-1.7-.6-1-.6-3.4v-.8h5v3q.2.4.8.4.5 0 .8-.3.2-.3.2-1.2 0-1.3-.3-1.6-.3-.4-3.2-2-2.4-1.3-3-2.4-.4-1-.4-2.6 0-2.2.5-3.2t2-1.6q1.2-.5 3-.5t3 .5q1.3.4 2 1 .6 1 .7 1.5.2.6.2 2v1zM965.5 224.3v4.3q0 2.4-.3 3.6-.2 1-1 2t-2 1.5q-1.3.5-3 .5t-3-.4q-1.2-.4-2-1.2-.6-.8-1-2-.2-1-.2-3.4v-4.5q0-2.5.6-4 .5-1.3 2-2.2 1.3-.8 3.5-.8 2 0 3.2.5 1.3.6 2 1.5.7.8 1 1.8.3 1 .3 2.8zM960 223V221q-.3-.3-.7-.3-.5 0-.7.2V232.5q.2.4.6.4.5 0 .7-.3V223zM979.3 224.7H974v-2-1.5q-.2-.3-.7-.3-.4 0-.6.2-.2.3-.2 1.5v8.4q0 1 .3 1.5.2.5.7.5.5 0 .7-.5.2-.5.2-2v-2h5l-.3 3.2q0 1-.8 2.2-.8 1-2 1.6-1.2.6-3 .6-2.3 0-3.6-.8-1.4-.8-2-2.2-.5-1.4-.5-4v-5q0-2.4.6-3.5.4-1.2 2-2 1.4-1 3.5-1 2.3 0 3.8 1 1.5.8 2 2.2.5 1.2.5 3.7zM986.4 214v3H981v-3h5.4zm0 4v17.8H981V218h5.4zM1000.6 224.3v4.3q0 2.4-.2 3.6-.2 1-1 2t-2 1.5q-1.3.5-3 .5t-3-.4q-1.2-.4-2-1.2-.6-.8-1-2-.2-1-.2-3.4v-4.5q0-2.5.5-4 .6-1.3 2-2.2 1.4-.8 3.6-.8 1.8 0 3 .5 1.4.6 2 1.5.8.8 1 1.8.3 1 .3 2.8zm-5.4-1.4V221q-.3-.3-.8-.3-.4 0-.6.2-.2.4-.2 1.7v8q0 1.2.2 1.6.2.4.6.4.5 0 .7-.3.2-.4.2-1.5V223zM1009 225v3.8h-7V225h7zM1022.8 227.2h-7v4q0 1 .2 1.5.2.3.7.3.6 0 .8-.5.2-.4.2-1.8v-2.3h5V232.3q-.3.8-1 1.8-.8 1.2-2 1.7t-3 .5q-1.6 0-3-.5-1.3-.5-2-1.4-.7-1-1-2-.3-1-.3-3v-5q0-2.5.6-3.8.7-1.4 2-2 1.5-.8 3.4-.8 2.3 0 3.8 1 1.4.7 2 2.2.6 1.3.6 4v2.2zm-5.4-3V223v-1.7q-.3-.4-.7-.4-.6 0-.7.2-.2.3-.2 1.8v1.3h1.6zm3.8-11l-4.4 3.6h-2.7l2.4-3.6h4.8zM1036.6 224.7h-5v-2q0-1-.3-1.5 0-.3-.6-.3-.5 0-.6.2v11.4q.4.5.8.5.6 0 .8-.5.2-.5.2-2v-2h4.8v3.2q-.3 1-1 2.2-.8 1-2 1.6-1.2.6-3 .6-2.3 0-3.7-.8-1.4-.8-2-2.2-.5-1.4-.5-4v-5q0-2.4.4-3.5.4-1.2 2-2 1.4-1 3.5-1 2 0 3.6 1 1.6.8 2 2.2.6 1.2.6 3.7zM1043.7 218v1.7q.5-1 1.4-1.5 1-.5 2-.5 1.4 0 2.3.7 1 .6 1.2 1.6.2 1 .2 3.4v12.4h-5.4v-12.3-2.2q-.2-.4-.8-.4-.6 0-.7.3-.2.5-.2 2.5v12h-5.4V218h5.5zM1065 224.3v4.3q0 2.4-.4 3.6-.2 1-1 2t-2 1.5q-1.3.5-3 .5t-3-.4q-1.2-.4-2-1.2-.6-.8-1-2v-7.9q0-2.5.4-4 .5-1.3 2-2.2 1.3-.8 3.5-.8 1.8 0 3 .5 1.4.6 2 1.5 1 .8 1 1.8.4 1 .4 2.8zm-5.5-1.4q0-1.4-.2-1.8 0-.3-.6-.3-.5 0-.7.2V232.5q.2.4.7.4.5 0 .6-.3.2-.4.2-1.5V223zM1072 218v1.7q.6-1 1.5-1.5.8-.5 2-.5 2 0 3.4 2 .5-1 1.4-1.5 1-.5 2-.5 1.3 0 2.2.7 1 .6 1.2 1.6.2 1 .2 3.2v12.6h-5.2v-11.6q0-2.3-.2-2.8t-.7-.5q-.7 0-1 .4V235.8h-5.3v-11.3-3q-.2-.6-.8-.6h-.7q-.3.4-.3.8v14h-5.3V218h5.3zM1093.5 214v3h-5.6v-3h5.5zm0 4v17.8h-5.6V218h5.5zM1107.7 218v20.4h-5.4v-4q-.8 1.2-1.5 1.5-.6.2-1.6.2-1.4 0-2.4-.7t-1.2-1.7q-.3-1-.3-3.3v-8q0-1.7.2-2.6.2-1 1.2-1.6 1-.7 2-.7 1.2 0 2 .5 1 .4 1.6 1.3V218h5.4zm-5.4 5q0-1.3-.2-1.7 0-.4-.5-.4t-.7.2v11.3q.2.4.7.4.5 0 .6-.4.3-.4.3-1.7v-8zM1122 218v17.8h-5.4v-1.4q-.5 1-1.3 1.3-1 .5-2 .5-1.2 0-2-.5-.8-.4-1.2-1l-.3-1.6v-15h5.3v14.6q.3.4.8.4.6 0 .7-.4V218h5.6zM1136.3 227.2h-7v5.5q.3.3.8.3.7 0 1-.5v-4.1h5.3v1.3q0 1.7-.2 2.6 0 .8-1 1.8-.7 1.2-1.8 1.7-1.2.5-3 .5-1.7 0-3-.5t-2-1.4q-.8-1-1-2-.4-1-.4-3v-5q0-2.5.7-3.8.6-1.4 2-2 1.5-.8 3.3-.8 2.3 0 3.8 1 1.5.7 2 2.2.7 1.3.7 4v2.2zm-5.5-3V223v-1.7q-.3-.4-.7-.4-.5 0-.6.2v3.1h1.4zM1149 223.7h-4.7v-1-1.5q-.2-.3-.8-.3-.5 0-.7.2-.2.3-.2 1v1l.8 1q.5.4 2.3 1.2 2.4 1.2 3 2.2 1 1 1 3t-.7 3.3q-.6 1-2 1.6-1.2.6-3 .6-2 0-3.6-.7-1.5-.6-2-1.7-.6-1-.6-3.4v-.8h4.8v1q0 1.5.2 2 .2.4.7.4.6 0 .8-.3.3-.3.3-1.2 0-1.3-.3-1.6-.4-.4-3.2-2-2.3-1.3-2.8-2.4-.5-1-.5-2.6 0-2.2.5-3.2.6-1 2-1.6 1.3-.5 3-.5 1.8 0 3 .5 1.3.4 2 1 .7 1 .8 1.5v3zM811.7 248.4L815 270H809l-.3-3.8h-2.2l-.3 4h-5.8l2.8-21.8h8.2zm-3 14l-.8-9q-1 6-1.2 9h2zM829.3 248.4l-2.8 21.7H818l-3.4-21.6h6q1 9 1.5 15.2l1-11.2.4-4h6zM830.3 248.4h9.4v4.3H836v4.2h3.5v4H836v4.8h4v4.3h-9.7v-21.6zM841.7 248.4h9.6v4.3h-4v4.2h3.6v4h-3.6v9h-5.7v-21.6zM862.3 248l-6.5 22.6h-4L858 248h4zM875.6 255h-5.3v-1.6q0-1.2-.2-1.5 0-.4-.5-.4-.6 0-.8.4-.3.5-.3 1.3 0 1 .3 1.6.3.5 1.6 1.3 3.8 2.2 4.8 3.6t1 4.6q0 2.3-.5 3.4-.5 1-2 2-1.7.6-3.7.6-2.3 0-4-1-1.5-.7-2-2-.5-1.4-.5-3.8v-1.5h5.3v2.7q0 1.2.2 1.6.2.3.8.3.5 0 .8-.5.3-.5.3-1.3 0-2-.5-2.6l-2.7-2q-2-1.3-2.8-2-.7-.6-1-1.7-.6-1.2-.6-3 0-2.4.8-3.6.6-1.2 2-1.8 1.5-.7 3.5-.7 2.2 0 3.7.7 1.6.7 2 1.8.6 1 .6 3.6v1zM890.5 248.4V270h-5l-3-9.7v9.8H878v-21.6h4.8l3 9.8v-9.8h5zM906 248.4l-2.7 21.7h-8.6l-3.3-21.6h6q1 9 1.5 15.2.3-6.3.8-11.2l.4-4h6zM907 248.4h9.5v4.3h-3.7v4.2h3.5v4h-3.5v4.8h4v4.3h-9.7v-21.6zM924.2 248.4v17.4h3.4v4.3h-9v-21.6h5.6zM938.6 248l-6.4 22.6h-4l6.3-22.6h4zM940 248.4h9.4v4.3h-3.8v4.2h3.5v4h-3.4v4.8h4v4.3H940v-21.6zM968.8 248.4V270h-5v-14.5l-2 14.6h-3.4l-2-14.2V270h-5v-21.6h7.3l.7 4.6.7 5.5 1.4-10h7.4zM971 248.4h5.7q2.7 0 4 .4 1.4.4 2.3 1.7.8 1.3.8 4 0 2-.6 2.7-.6.8-2.3 1.2 1.8.4 2.5 1.5.7 1 .7 3v2q0 2.2-.5 3.3-.5 1-1.6 1.4-1 .4-4.4.4H971v-21.6zm5.7 3.7v5h.6q.8 0 1-.5.3-.4.3-2.3 0-1-.2-1.4-.2-.5-.5-.6h-1.3zm0 8.3v6q1.2 0 1.5-.3.4-.3.4-1.6v-2q0-1.4-.3-1.7-.3-.3-1.6-.4zM998.3 255H993v-1.6q0-1.2-.2-1.5-.2-.4-.7-.4-.4 0-.6.4-.3.5-.3 1.3 0 1 .4 1.6.3.5 1.6 1.3 3.8 2.2 4.7 3.6 1 1.4 1 4.6 0 2.3-.5 3.4-.6 1-2 2-1.7.6-3.7.6-2.3 0-4-1-1.5-.7-2-2-.5-1.4-.5-3.8v-1.5h5.2v2.7q0 1.2.2 1.6.3.3.8.3.6 0 1-.5.2-.5.2-1.3 0-2-.6-2.6l-2.6-2q-2-1.3-2.8-2-.7-.6-1-1.7-.6-1.2-.6-3 0-2.4.6-3.6.7-1.2 2-1.8 1.5-.7 3.5-.7t3.7.7q1.5.7 2 1.8.6 1 .6 3.6v1z" style="line-height:125%;-inkscape-font-specification:'Impact Condensed';text-align:center" font-stretch="condensed" font-family="Impact" letter-spacing="0" word-spacing="0" text-anchor="middle"/><path fill="#ff7100" d="M319 115l-9.4 5.4-9.4 5.4 9.4 5.4 9.3 5.5V129h862v7.7l9-5.5 9.3-5.4-9.4-5.4-9.4-5.4v7.3H319V115z"/><path fill="#ff7100" d="M583.2 151h-7v-4.7q0-2-.4-2.6-.2-.5-1-.5-1 0-1 .6-.4.6-.4 2.7v13q0 2 .3 2.5.2.6 1 .6 1 0 1-.6.4-.6.4-3v-3.3h7.2v1q0 4.3-.6 6-.6 2-2.7 3.3-2 1.3-5.2 1.3-3 0-5.2-1-2-1.3-2.7-3.3-.8-2-.8-6v-8.2q0-3 .2-4.4.3-1.6 1.3-3 1-1.3 2.8-2 1.8-1 4-1 3.3 0 5.4 1.3 2 1.2 2.6 3 .6 2 .6 5.8v2.6zM602.3 155.3q0 4-.2 6 0 1.6-1 3-1.2 1.5-3 2.2-1.7.8-4 .8-2.2 0-4-.7-1.8-.7-3-2.2-1-1.4-1-3-.3-2-.3-6v-5-5.8q.3-1.7 1.4-3 1-1.6 3-2.3 1.6-.8 4-.8 2.2 0 4 .7 1.7.7 2.8 2.2 1 1.4 1.3 3.2.3 1.7.3 6v4.7zm-7.2-9v-2.6q-.3-.5-1-.5-.6 0-1 .4v18.6q.2.4 1 .4.7 0 1-.6v-15.8zM621 139v27.7h-6.3l-3.8-12.5v12.5h-6V139h6l4 12.5V139h6zM640.4 149.3h-7.2v-2.6q0-2.3-.2-3-.2-.5-1-.5-.7 0-1 .5V162q.3.6 1 .6.8 0 1-.6.4-.7.4-2.6V156H632v-4h8.4v14.7h-4.6l-.6-2q-.8 1.3-2 2-1 .6-2.5.6-1.8 0-3.4-1-1.6-.7-2.4-2-1-1.3-1-2.8-.3-1.4-.3-4.2V149q0-4 .4-5.7.5-1.8 2.5-3.3 2-1.5 5.3-1.5 3 0 5.2 1.3 2 1.3 2.7 3 .7 2 .7 5.3v1.3zM643 139h5.2q5 0 7 .5 1.7.4 3 2 1 1.6 1 5t-.8 4.5q-.8 1-3.2 1.3 2.2.5 3 1.4.7 1 .8 1.7.2.7.2 4v7.3h-6.7v-9.2q0-2.2-.3-2.7-.4-.5-2-.5v12.4h-7V139zm7.3 4.8v6.2q1.3 0 1.7-.4.5-.3.5-2v-1.7q0-1.4-.4-1.8-.4-.4-1.7-.4zM662 139h12v5.6h-4.8v5.3h4.5v5h-4.5v6.2h5.3v5.5H662V139zm0-5.4h6l3 4.6h-3.4l-5.6-4.6zM691.8 147.4H685v-2-1.8q-.4-.4-1-.4t-1 .5q-.3.5-.3 1.6 0 1.4.4 2 .4.8 2 1.8 5 3 6.2 4.8 1.2 1.8 1.2 6 0 2.8-.7 4.2-.7 1.4-2.7 2.4t-4.6 1q-3 0-5-1.2-2-1-2.6-2.8-.6-1.7-.6-4.8v-1.8h6.7v3.4q0 1.5.2 2 .2.4 1 .4.7 0 1-.5.4-.5.4-1.6 0-2.4-.7-3.2-.8-.8-3.5-2.5-2.6-1.8-3.5-2.6-1-.7-1.5-2-.5-1.5-.5-3.7 0-3.2.8-4.7t2.6-2.3q1.8-.8 4.4-.8 2.8 0 4.8 1 2 .8 2.6 2.2.6 1.4.6 4.6v1zM713.3 139l4 27.7H710l-.3-5H707l-.3 5h-7.5L703 139h10.3zm-3.8 18q-.6-4.8-1-11.7-1.2 8-1.5 11.6h2.5zM735.7 139l-3.7 27.7h-11l-4-27.6h7.6q1.3 11.5 1.8 19.4l1.2-14.2.5-5h7.7zM737 139h12v5.6h-5v5.3h4.6v5H744v6.2h5.4v5.5H737V139zM751.5 139h12.2v5.6h-5v5.3h4.4v5h-4.3v11.7h-7.2V139zM777.6 138.5l-8.2 28.8h-5.2l8.3-28.8h5zM794.6 147.4H788v-2q0-1.4-.4-1.8-.2-.4-.8-.4-.7 0-1 .5-.3.5-.3 1.6 0 1.4.3 2 .4.8 2 1.8 5 3 6 4.8 1.4 1.8 1.4 6 0 2.8-.7 4.2-.7 1.4-2.7 2.4t-4.6 1q-3 0-5-1.2-2-1-2.6-2.8-.7-1.7-.7-4.8v-1.8h6.6v3.4q0 1.5.3 2 .2.4 1 .4.6 0 1-.5.3-.5.3-1.6 0-2.4-.6-3.2-.7-.8-3.4-2.5-2.7-1.8-3.6-2.6-.8-.7-1.4-2-.6-1.5-.6-3.7 0-3.2.8-4.7t2.7-2.3q1.8-.8 4.3-.8 2.8 0 4.8 1 2 .8 2.6 2.2.6 1.4.6 4.6v1zM813.5 139v27.7h-6.3l-3.8-12.5v12.5h-6V139h6l4 12.5V139h6zM833.5 139l-3.7 27.7h-11l-4-27.6h7.5q1.3 11.5 2 19.4l1-14.2.6-5h7.5zM834.7 139h12v5.6H842v5.3h4.4v5H842v6.2h5.2v5.5h-12.5V139zM856.4 139v22.2h4.4v5.5h-11.5V139h7zM883.4 162v4.7h-15.2v-4q6.8-11 8-13.6 1.3-2.5 1.3-4 0-1-.4-1.6-.3-.6-1-.6-.8 0-1.2.6-.4.6-.4 2.5v2.5h-6.2v-1q0-2.3.3-3.7.2-1.3 1-2.6 1-1.3 2.6-2t3.7-.7q4 0 6.2 2 2 2 2 5.3 0 2.3-1.2 5-1 2.6-7 11.2h7.6zM902.3 148.4v9.3q0 3-.3 4.5-.4 1.5-1.4 2.7-1 1.2-2.6 1.7-1.6.6-3.4.6-2.5 0-4.2-.6-1.6-.6-2.6-1.8-1-1.3-1.4-2.6-.4-1.4-.4-4.3v-9.6q0-3.8.7-5.7.6-2 2.6-3 2-1.2 4.7-1.2 2.3 0 4 .8 2 .8 2.8 2 1 1 1.2 2.6.3 1.3.3 4.4zm-7-2.3v-2.6q-.3-.6-1-.6-1 0-1 .6-.4.6-.4 2.7v13.6q0 2.4.2 3 .2.4 1 .4.7 0 1-.6.2-.5.2-2.6V146zM915.4 139v27.7h-7V152v-4q-.2-.6-1-1-.6-.3-3-.3h-.7v-3.2q5-1 7.6-4.4h4zM933 139v4.5h-8.5v4.7q1.6-2 4.2-2 2.8 0 4.3 1.7 1.4 1.5 1.4 6v4q0 3-.2 4.3-.3 1.4-1.2 2.6-1 1-2.6 1.7-1.7.6-4 .6-2.7 0-4.7-1t-3-2.7q-.8-2-.8-5.7v-1.7h6.8v1.8q0 2.8.2 4 .2 1 1.3 1 .5 0 .8-.3.5-.3.5-.7v-8.8q0-1.5-.3-2-.3-.6-1-.6l-1 .2-.3.7q-.2.3-.2 1.5H918l.3-14H933z" style="line-height:125%;-inkscape-font-specification:'Impact Condensed';text-align:center" font-stretch="condensed" font-family="Impact" letter-spacing="0" word-spacing="0" text-anchor="middle"/></svg>