<svg xmlns="http://www.w3.org/2000/svg" viewBox="0 0 130 50" preserveAspectRatio="xMaxYMax meet"><path fill="#fca94f" d="M23 3.5c8.2 0 15.3 4 19.5 10.2 0 0 9.4 12.5 17.5 10l-9.6 10.7s-8.2 10.2-19 14c-2.4 1-5 1.6-8 1.6C10.6 50 0 39.8 0 27 0 14 10.2 3.5 23 3.4"/><g fill="#fff9e1"><path d="M32 15.3c-3.7-3.4-9.2-3-12.4 1-3.2 3.7-2.8 9.6 1 13 3.6 3.2 9.2 2.8 12.4-1 3-4 2.7-9.7-1-13M21.6 28c-3-2.8-3.4-7.6-.8-10.7 2.6-3 7-3.5 10.2-.7 3 2.7 3.3 7.4.7 10.5-2.6 3.4-7 3.7-10 1"/><path d="M16.4 36l-1.8-1.6 5.6-6.8 1.8 1.7-5.6 6.7z"/><path d="M14.2 39.8c-.7.8-2 1-2.7.2-.8-.7-1-2-.2-2.8l5.3-6.4c.7-1 2-1 2.7-.2.8.7 1 2 .2 2.8l-5.3 6.4z"/></g><g fill="#fff9e1" font-stretch="condensed" font-family="Impact" text-anchor="middle"><text x="87.1" y="-1238.6" style="-inkscape-font-specification:'Impact Condensed';text-align:center" font-size="17.6" transform="matrix(1.24 0 0 1.26 -20.88 1585.08)"><tspan x="78.7 87.7 96.7" y="-1238.6" style="-inkscape-font-specification:'Impact Condensed';text-align:center" font-size="20">35</tspan></text><text x="87.9" y="-1225.2" style="-inkscape-font-specification:'Impact Condensed';text-align:center" font-size="11.2" transform="matrix(1.24 0 0 1.26 -20.88 1585.08)"><tspan x="69.1 73.6 78.8 83.4 87.9 90.8 96.3 101.6" y="-1225.2" style="-inkscape-font-specification:'Impact Condensed';text-align:center" font-size="11">sessions</tspan></text></g></svg>
