<svg xmlns="http://www.w3.org/2000/svg" viewBox="0 0 165 46.6"><path fill="#7bb4ab" d="M25.2 0c8.2 0 15.3 4 19.5 10.3 0 0 9.4 12.5 17.5 10L52.6 31s-8.2 10.2-19 14c-2.4 1-5 1.6-8 1.6-12.8 0-23.4-10.2-23.4-23 0-13 10.2-23.6 23-23.6"/><g fill="#fff9e1"><path d="M26.7 15H15.2c-2.2 0-4 1.6-4 3.6v6c0 2 1.8 3.7 4 3.7h.6l-2 5 7.2-5h5.7c2.2 0 4-1.7 4-3.7v-6c0-2-1.8-3.7-4-3.7"/><path d="M35.7 13.3h-9.5c-.4 0-1 0-1.4.3h2.8c2.5 0 4.6 2 4.6 4.2V25c2 1.3 4.7 3.3 4.7 3.4 0 0-1-3-1.8-4.2h.8c2 0 3.4-1.3 3.4-3v-5c0-1.6-1.4-3-3.3-3"/></g><path fill="#fff9e1" d="M115.1 9.76q1.1.38 1.65 1.26.55.86.55 4.06 0 2.37-.53 3.7-.54 1.3-1.84 1.98-1.3.68-3.36.68-2.32 0-3.66-.8-1.3-.8-1.73-1.93-.4-1.15-.4-4v-1.57h4.88v3.24q0 1.3.15 1.65.15.34.67.34.57 0 .76-.44.18-.44.18-2.3v-1.4q0-1.14-.25-1.67t-.75-.7q-.5-.16-1.92-.18v-2.9q1.74 0 2.15-.13.4-.13.6-.6.18-.44.18-1.42v-1.1q0-1.05-.2-1.38-.22-.33-.66-.33-.5 0-.7.36-.2.35-.2 1.5v1.63h-4.88V5.6q0-2.87 1.28-3.86 1.3-1 4.08-1 3.5 0 4.75 1.38 1.25 1.4 1.25 3.86 0 1.68-.45 2.43-.45.75-1.57 1.36z" style="-inkscape-font-specification:'Impact Condensed';text-align:center" font-stretch="condensed" font-size="25" font-family="Impact" text-anchor="middle"/><path fill="#fff9e1" d="M61 28.2v2.15h2.46v1.73H61v3.22q0 .52.2.7.2.2.82.2h1.23v1.73H61.2q-1.4 0-2-.6-.6-.6-.6-2.03v-3.22h-1.17v-1.73h1.18V28.2H61zM68.26 34.52q-.74 0-1.12.25-.37.26-.37.76 0 .46.3.73.3.25.84.25.68 0 1.14-.47.46-.5.46-1.24v-.28h-1.24zm3.65-.92v4.33h-2.4V36.8q-.48.7-1.08 1-.6.32-1.45.32-1.16 0-1.9-.68-.7-.7-.7-1.8 0-1.32.9-1.94.9-.62 2.83-.62h1.4v-.2q0-.57-.44-.83-.45-.27-1.4-.27-.76 0-1.42.15-.66.16-1.23.47v-1.85q.78-.2 1.55-.28.77-.1 1.55-.1 2.02 0 2.9.8.9.8.9 2.63zM78.08 36.36q.77 0 1.17-.56.4-.57.4-1.66 0-1.08-.4-1.65-.4-.57-1.17-.57-.77 0-1.18.57-.4.57-.4 1.64 0 1.08.4 1.66.4.56 1.18.56zm-1.58-4.9q.5-.66 1.1-.98.6-.3 1.37-.3 1.38 0 2.26 1.1.9 1.1.9 2.86 0 1.76-.9 2.87-.88 1.12-2.26 1.12-.78 0-1.38-.3-.6-.33-1.1-1v1.1h-2.4V27.4h2.4v4.06zM83.9 27.4h2.37v10.53H83.9V27.4zM96.02 34.12v.7h-5.57q.1.84.6 1.27.52.4 1.46.4.76 0 1.55-.2.8-.24 1.62-.7v1.87q-.85.32-1.7.5-.84.15-1.68.15-2.04 0-3.16-1.04-1.12-1.05-1.12-2.94 0-1.85 1.1-2.9 1.1-1.07 3.03-1.07 1.76 0 2.8 1.07 1.07 1.08 1.07 2.88zm-2.45-.8q0-.7-.4-1.12-.4-.42-1.03-.42-.7 0-1.13.4-.42.4-.52 1.13h3.1zM103.68 30.6v1.83q-.77-.33-1.48-.5-.72-.15-1.35-.15-.68 0-1 .17-.34.17-.34.53 0 .3.26.45.25.15.9.23l.42.06q1.83.23 2.46.78.64.54.64 1.7 0 1.2-.88 1.82-.88.6-2.63.6-.74 0-1.53-.12-.8-.1-1.62-.35V35.8q.7.36 1.46.54.75.17 1.53.17.7 0 1.06-.18.35-.2.35-.58 0-.33-.24-.5-.24-.15-.96-.24l-.42-.05q-1.6-.2-2.23-.75-.64-.55-.64-1.67 0-1.2.82-1.78.8-.58 2.5-.58.65 0 1.38.1.72.1 1.58.32zM105.54 32.95h4.18v1.97h-4.18v-1.97zM117.16 32.4q-.3-.14-.62-.2-.3-.08-.62-.08-.92 0-1.42.6-.5.6-.5 1.72v3.5h-2.38v-7.6h2.4v1.25q.45-.75 1.04-1.1.6-.33 1.43-.33h.25l.4.05v2.2zM121.9 31.9q-.78 0-1.2.58-.4.58-.4 1.66 0 1.1.4 1.68.42.57 1.2.57.8 0 1.2-.58.42-.6.42-1.68t-.42-1.66q-.4-.58-1.2-.58zm0-1.73q1.94 0 3.02 1.05 1.08 1.06 1.08 2.92 0 1.87-1.08 2.93-1.08 1.05-3 1.05-1.94 0-3.03-1.05-1.1-1.06-1.1-2.93 0-1.86 1.1-2.92 1.08-1.05 3-1.05zM135.24 33.3v4.63h-2.4V34.4q0-1-.05-1.36-.05-.37-.15-.55-.14-.24-.38-.37-.24-.14-.55-.14-.74 0-1.17.58-.43.58-.43 1.62v3.73h-2.38v-7.58h2.38v1.1q.54-.65 1.15-.97.6-.3 1.34-.3 1.3 0 1.97.8.67.8.67 2.33zM142.54 31.46V27.4h2.4v10.53h-2.4v-1.1q-.5.67-1.1.98-.58.32-1.36.32-1.38 0-2.26-1.1-.9-1.12-.9-2.88 0-1.75.9-2.86.88-1.1 2.26-1.1.77 0 1.37.3.6.32 1.1.98zm-1.57 4.9q.76 0 1.16-.56.4-.57.4-1.66 0-1.08-.4-1.65-.4-.57-1.16-.57-.76 0-1.17.56-.4.56-.4 1.64 0 1.1.4 1.66.4.56 1.17.56zM154.7 34.12v.7h-5.6q.1.84.62 1.27.52.4 1.45.4.75 0 1.54-.2.8-.24 1.63-.7v1.87q-.84.32-1.7.5-.83.15-1.68.15-2.03 0-3.15-1.04-1.12-1.05-1.12-2.94 0-1.85 1.1-2.9 1.1-1.07 3.04-1.07 1.75 0 2.8 1.07 1.07 1.08 1.07 2.88zm-2.46-.8q0-.7-.4-1.12-.4-.42-1.04-.42-.7 0-1.12.4-.44.4-.54 1.13h3.1zM162.34 30.6v1.83q-.77-.33-1.48-.5-.7-.15-1.35-.15-.66 0-1 .17-.32.17-.32.53 0 .3.24.45.26.15.9.23l.42.06q1.83.23 2.47.78.64.54.64 1.7 0 1.2-.88 1.82-.88.6-2.63.6-.73 0-1.53-.12-.78-.1-1.62-.35V35.8q.72.36 1.46.54.76.17 1.53.17.7 0 1.05-.18.35-.2.35-.58 0-.33-.24-.5-.24-.15-.97-.24l-.42-.05q-1.6-.2-2.23-.75-.63-.55-.63-1.67 0-1.2.8-1.78.83-.58 2.5-.58.66 0 1.4.1.72.1 1.57.32z" style="-inkscape-font-specification:'sans-serif Bold';text-align:center" font-weight="bold" font-size="13.75" font-family="sans-serif" text-anchor="middle"/></svg>