<svg xmlns="http://www.w3.org/2000/svg" viewBox="0 0 165 46.6"><path fill="#ff7100" d="M52.2 0c8 .2 15 4.5 19 11 0 0 8.8 12.7 17 10.5l-10 11s-8.5 9.2-19.3 13c-3 .6-6 1-8 1-13-.4-23-11-23-24C28 9.8 39-.3 52 0"/><path fill="#fff9e1" d="M55.5 8.2L51.8 7v12.7l.7-2.3c4 .3 7 3.7 7 7.7 0 5-3.4 8.37-7.7 8.37l-.03 2.38c1 0 1.57.72 1.57 1.72s-.67 1.47-1.57 1.47l-.2 1.6 8.63-.04v-2c0-1.3-1.7-2-4-2.5 4.2-2 7.2-6 7.2-11 0-5.8-4.2-10.5-9.7-11.4L55.5 8zM51.8 7L50 6.4l-5 15.3 5.6 1.8 1.2-3v-13zm0 26.44c-1.7 0-3.2-.5-4.5-1.4h4v-2.2h-11v2.2h2c1 2 3 3.5 5.2 4.4-2.4.5-4 1.2-4 2.4v1.8h8.64l-.34-1.6c-1 0-1.6-.8-1.6-1.6 0-1 .7-1.6 1.6-1.6z"/><g fill="#fff9e1" font-stretch="condensed" font-family="Impact" text-anchor="middle"><text x="87.1" y="-1238.6" font-size="17.6" style="-inkscape-font-specification:'Impact Condensed';text-align:center" transform="matrix(1.24 0 0 1.26 27.39 1581.51)"><tspan x="88.9" y="-1238.6" font-size="20" style="-inkscape-font-specification:'Impact Condensed';text-align:center">21</tspan></text><text x="87.9" y="-1225.2" font-size="11.2" style="-inkscape-font-specification:'Impact Condensed';text-align:center" transform="matrix(1.24 0 0 1.26 27.39 1581.51)"><tspan x="87.9" y="-1225.2" font-stretch="normal" font-weight="bold" font-size="11" style="-inkscape-font-specification:'sans-serif Bold';text-align:center" font-family="sans-serif">ateliers</tspan></text></g></svg>