<svg xmlns="http://www.w3.org/2000/svg" viewBox="0 0 165 46.6"><path fill="#fca94f" d="M23 0c8.2 0 15.3 4 19.5 10.3 0 0 9.4 12.5 17.5 10L50.4 31s-8.2 10.2-19 14c-2.4 1-5 1.6-8 1.6C10.6 46.6 0 36.4 0 23.6 0 10.6 10.2 0 23 0"/><g fill="#fff9e1"><path d="M32 12c-3.7-3.5-9.2-3-12.4 1-3.2 3.6-2.8 9.5 1 13 3.6 3 9.2 2.7 12.4-1 3-4 2.7-9.8-1-13M21.6 24.5c-3-2.8-3.4-7.6-.8-10.7 2.6-3 7-3.6 10.2-.8 3 2.7 3.3 7.4.7 10.5-2.6 3.4-7 3.7-10 1"/><path d="M16.4 32.6L14.6 31l5.6-6.8L22 26l-5.6 6.6z"/><path d="M14.2 36.4c-.7.8-2 1-2.7.2-.8-.7-1-2-.2-2.8l5.3-6.4c.7-1 2-1 2.7-.2.8.7 1 2 .2 2.8l-5.3 6.4z"/></g><path fill="#fff9e1" d="M99.76 9.76q1.1.38 1.66 1.26.54.86.54 4.06 0 2.37-.53 3.7-.53 1.3-1.84 1.98-1.32.68-3.37.68-2.32 0-3.65-.8-1.32-.8-1.75-1.93-.4-1.15-.4-4v-1.57h4.88v3.24q0 1.3.16 1.65.16.34.68.34.57 0 .75-.44.17-.44.17-2.3v-1.4q0-1.14-.25-1.67-.26-.53-.76-.7-.5-.16-1.92-.18v-2.9q1.74 0 2.15-.13.4-.13.6-.6.17-.44.17-1.42v-1.1q0-1.05-.22-1.38-.2-.33-.65-.33-.5 0-.7.36-.2.35-.2 1.5v1.63h-4.88V5.6q0-2.87 1.3-3.86 1.27-1 4.07-1 3.5 0 4.73 1.38 1.25 1.4 1.25 3.86 0 1.68-.45 2.43-.45.75-1.57 1.36zM113.2 1.12v3.2h-6.06v3.37q1.14-1.37 2.93-1.37 2.03 0 3.06 1.15 1.04 1.15 1.04 4.42v2.84q0 2.12-.2 3.12-.2.98-.86 1.83-.64.83-1.82 1.28-1.16.45-2.84.45-1.9 0-3.33-.67-1.43-.68-2.04-2-.6-1.33-.6-4.1v-1.1h4.9v1.25q0 1.94.12 2.75.14.8.92.8.37 0 .58-.22.23-.24.25-.5.02-.28.04-2.36v-3.95q0-1.12-.23-1.52-.23-.4-.76-.4-.34 0-.57.2-.22.2-.3.46-.05.23-.05 1.1h-4.84l.2-10.04h10.5z" style="-inkscape-font-specification:'Impact Condensed';text-align:center" font-stretch="condensed" font-size="20" font-family="Impact" text-anchor="middle"/><path fill="#fff9e1" d="M81.43 30.6v1.83q-.76-.33-1.48-.5-.7-.15-1.34-.15-.67 0-1 .17-.33.17-.33.53 0 .3.25.45.25.15.9.23l.42.06q1.83.23 2.46.78.63.54.63 1.7 0 1.2-.88 1.8-.88.62-2.62.62-.74 0-1.53-.12-.8-.1-1.62-.35V35.8q.7.36 1.46.54.75.17 1.52.17.7 0 1.06-.18.35-.2.35-.6 0-.3-.25-.47-.24-.16-.96-.25l-.42-.05q-1.6-.2-2.23-.75-.63-.55-.63-1.67 0-1.2.8-1.78.82-.6 2.5-.6.66 0 1.4.12.7.1 1.56.3zM90.74 34.12v.7h-5.57q.1.84.6 1.27.52.4 1.46.4.75 0 1.54-.2.8-.24 1.62-.7v1.87q-.86.32-1.7.5-.85.15-1.7.15-2.02 0-3.14-1.04-1.12-1.05-1.12-2.94 0-1.85 1.1-2.9 1.1-1.07 3.03-1.07 1.76 0 2.8 1.07 1.07 1.08 1.07 2.88zm-2.45-.8q0-.7-.4-1.12-.4-.42-1.04-.42-.7 0-1.13.4-.43.4-.53 1.13h3.1zM97.96 30.6v1.83q-.77-.33-1.48-.5-.7-.15-1.35-.15-.68 0-1 .17-.34.17-.34.53 0 .3.24.45.25.15.9.23l.42.06q1.83.23 2.46.78.64.54.64 1.7 0 1.2-.88 1.8-.88.62-2.63.62-.74 0-1.53-.12-.78-.1-1.62-.35V35.8q.72.36 1.46.54.75.17 1.53.17.7 0 1.04-.18.35-.2.35-.6 0-.3-.25-.47-.24-.16-.97-.25l-.42-.05q-1.6-.2-2.23-.75-.64-.55-.64-1.67 0-1.2.8-1.78.82-.6 2.5-.6.65 0 1.38.12.72.1 1.58.3zM105.46 30.6v1.83q-.77-.33-1.48-.5-.7-.15-1.34-.15-.68 0-1.02.17-.32.17-.32.53 0 .3.24.45.26.15.9.23l.42.06q1.83.23 2.47.78.63.54.63 1.7 0 1.2-.88 1.8-.88.62-2.62.62-.74 0-1.54-.12-.78-.1-1.6-.35V35.8q.7.36 1.44.54.76.17 1.53.17.7 0 1.04-.18.35-.2.35-.6 0-.3-.25-.47-.24-.16-.97-.25l-.42-.05q-1.6-.2-2.23-.75-.64-.55-.64-1.67 0-1.2.8-1.78.82-.6 2.5-.6.66 0 1.38.12.73.1 1.58.3zM106.92 30.35h2.38v7.58h-2.38v-7.58zm0-2.95h2.38v1.97h-2.38V27.4zM114.42 31.9q-.8 0-1.22.58-.4.58-.4 1.66 0 1.1.4 1.68.42.57 1.22.57.78 0 1.2-.58.4-.6.4-1.68t-.4-1.66q-.42-.58-1.2-.58zm0-1.73q1.92 0 3 1.05 1.1 1.06 1.1 2.92 0 1.87-1.1 2.93-1.08 1.05-3 1.05-1.94 0-3.03-1.05-1.1-1.06-1.1-2.93 0-1.86 1.1-2.92 1.08-1.05 3.02-1.05zM126.8 33.3v4.63h-2.4V34.4q0-1-.03-1.36-.04-.37-.15-.55-.14-.24-.38-.37-.24-.14-.55-.14-.75 0-1.18.58-.42.58-.42 1.62v3.73h-2.4v-7.58h2.4v1.1q.54-.65 1.14-.97.6-.3 1.34-.3 1.3 0 1.96.8.67.8.67 2.33zM133.87 30.6v1.83q-.76-.33-1.48-.5-.72-.15-1.35-.15-.68 0-1 .17-.34.17-.34.53 0 .3.26.45.25.15.9.23l.42.06q1.83.23 2.46.78.63.54.63 1.7 0 1.2-.88 1.8-.9.62-2.63.62-.74 0-1.53-.12-.8-.1-1.62-.35V35.8q.7.36 1.46.54.75.17 1.52.17.7 0 1.05-.18.36-.2.36-.6 0-.3-.24-.47-.24-.16-.96-.25l-.42-.05q-1.6-.2-2.24-.75-.63-.55-.63-1.67 0-1.2.82-1.78.8-.6 2.5-.6.65 0 1.37.12.72.1 1.57.3z" style="-inkscape-font-specification:'sans-serif Bold';text-align:center" font-weight="bold" font-size="11" font-family="sans-serif" text-anchor="middle"/></svg>