<svg xmlns="http://www.w3.org/2000/svg" viewBox="0 0 130 50"><path fill="#7bb4ab" d="M23 3.5c8.2 0 15.3 4 19.5 10.2 0 0 9.4 12.5 17.5 10l-9.6 10.7s-8.2 10.2-19 14c-2.4 1-5 1.6-8 1.6C10.6 50 0 39.8 0 27 0 14 10.2 3.5 23 3.4"/><g fill="#fff9e1"><path d="M24.5 18.3H13c-2.2 0-4 1.7-4 3.7v6c0 2 1.8 3.7 4 3.7h.6l-2 5 7.2-5h5.7c2.2 0 4-1.7 4-3.7v-6c0-2-1.8-3.7-4-3.7"/><path d="M33.5 16.7H24c-.4 0-1 0-1.4.3h2.8c2.5 0 4.6 2 4.6 4.2v7.2c2 1.3 4.7 3.3 4.7 3.4 0 0-1-3-1.6-4.2h.6c2 0 3.3-1.3 3.3-3v-5c0-1.6-1.5-3-3.4-3"/></g><g fill="#fff9e1" font-stretch="condensed" font-family="Impact" text-anchor="middle"><text x="87.1" y="-1238.6" style="-inkscape-font-specification:'Impact Condensed';text-align:center" font-size="17.6" transform="matrix(1.24 0 0 1.26 -20.8 1585.08)"><tspan x="88.9" y="-1238.6" style="-inkscape-font-specification:'Impact Condensed';text-align:center" font-size="20">3</tspan></text><text x="87.9" y="-1225.2" style="-inkscape-font-specification:'Impact Condensed';text-align:center" font-size="11.2" transform="matrix(1.24 0 0 1.26 -20.8 1585.08)"><tspan x="87.9" y="-1225.2" style="-inkscape-font-specification:'Impact Condensed';text-align:center" font-size="11">tables-rondes</tspan></text></g></svg>