<svg xmlns="http://www.w3.org/2000/svg" viewBox="0 0 165 46.6"><path fill="#ff7100" d="M52.2 0c8 .2 15 4.5 19 11 0 0 8.8 12.7 17 10.5l-10 11s-8.5 9.2-19.3 13c-3 .6-6 1-8 1-13-.4-23-11-23-24C28 9.8 39-.3 52 0"/><path fill="#fff9e1" d="M55.5 8.2L51.8 7v12.7l.7-2.3c4 .3 7 3.7 7 7.7 0 5-3.4 8.37-7.7 8.37l-.03 2.38c1 0 1.57.72 1.57 1.72s-.67 1.47-1.57 1.47l-.2 1.6 8.63-.04v-2c0-1.3-1.7-2-4-2.5 4.2-2 7.2-6 7.2-11 0-5.8-4.2-10.5-9.7-11.4L55.5 8zM51.8 7L50 6.4l-5 15.3 5.6 1.8 1.2-3v-13zm0 26.44c-1.7 0-3.2-.5-4.5-1.4h4v-2.2h-11v2.2h2c1 2 3 3.5 5.2 4.4-2.4.5-4 1.2-4 2.4v1.8h8.64l-.34-1.6c-1 0-1.6-.8-1.6-1.6 0-1 .7-1.6 1.6-1.6z"/><path fill="#fff9e1" d="M138.15 17.48v3.4h-10.77v-2.85q4.78-7.95 5.68-9.83.9-1.9.9-2.95 0-.82-.27-1.2-.28-.4-.83-.4-.56 0-.84.43-.26.44-.26 1.76v1.9h-4.4V7q0-1.67.18-2.63.17-.97.84-1.9.65-.94 1.72-1.42 1.06-.48 2.55-.48 2.92 0 4.4 1.48 1.5 1.46 1.5 3.7 0 1.72-.84 3.63-.83 1.9-4.95 8.1h5.37zM147.54.95v19.92h-4.9V10.2q0-2.32-.1-2.8-.1-.45-.6-.7-.5-.23-2.18-.23h-.5V4.14q3.56-.78 5.4-3.2h2.88z" style="-inkscape-font-specification:'Impact Condensed';text-align:center" font-stretch="condensed" font-size="25" font-family="Impact" text-anchor="middle"/><path fill="#fff9e1" d="M111.64 34.35q-.75 0-1.13.25-.36.26-.36.76 0 .46.3.73.3.24.84.24.68 0 1.14-.48.46-.5.46-1.24v-.27h-1.24zm3.64-.92v4.33h-2.4v-1.13q-.48.7-1.08 1-.6.32-1.46.32-1.16 0-1.9-.68-.7-.7-.7-1.8 0-1.32.9-1.94.9-.62 2.83-.62h1.4v-.18q0-.58-.44-.84-.45-.27-1.4-.27-.76 0-1.42.16-.65.16-1.2.47v-1.85q.75-.2 1.53-.28.77-.1 1.54-.1 2.02 0 2.9.8.9.8.9 2.63zM120.1 28.03v2.15h2.45v1.73h-2.46v3.23q0 .52.2.7.2.2.8.2h1.24v1.73h-2.04q-1.42 0-2-.6-.6-.6-.6-2.03V31.9h-1.18V30.2h1.18v-2.15h2.4zM131.46 33.95v.7h-5.58q.1.84.6 1.27.53.42 1.46.42.75 0 1.54-.22.8-.23 1.62-.7v1.88q-.84.32-1.7.5-.83.15-1.68.15-2.02 0-3.15-1.04-1.12-1.04-1.12-2.93 0-1.85 1.1-2.9 1.1-1.07 3.04-1.07 1.75 0 2.8 1.07 1.06 1.08 1.06 2.88zm-2.45-.8q0-.7-.4-1.12-.4-.42-1.03-.42-.7 0-1.12.4-.43.4-.54 1.14h3.1zM133.28 27.23h2.4v10.53h-2.4V27.23zM137.97 30.18h2.4v7.58h-2.4v-7.58zm0-2.95h2.4v1.97h-2.4v-1.97zM150.1 33.95v.7h-5.57q.1.84.6 1.27.53.42 1.46.42.74 0 1.53-.22.8-.23 1.62-.7v1.88q-.84.32-1.7.5-.83.15-1.68.15-2.03 0-3.15-1.04t-1.12-2.93q0-1.85 1.1-2.9 1.1-1.07 3.04-1.07 1.75 0 2.8 1.07 1.07 1.08 1.07 2.88zm-2.45-.8q0-.7-.4-1.12-.4-.42-1.03-.42-.7 0-1.12.4-.44.4-.54 1.14h3.1zM157.47 32.24q-.3-.15-.62-.2-.3-.1-.62-.1-.92 0-1.42.6-.48.6-.48 1.73v3.5h-2.4v-7.6h2.4v1.25q.45-.74 1.05-1.08.6-.34 1.43-.34h.26l.4.05v2.2zM164.5 30.42v1.84q-.77-.33-1.48-.5-.7-.15-1.35-.15-.67 0-1 .18-.33.17-.33.53 0 .3.24.46.26.15.9.23l.42.05q1.83.23 2.47.78.63.54.63 1.7 0 1.2-.88 1.82-.88.6-2.63.6-.74 0-1.54-.12-.78-.1-1.62-.35v-1.84q.72.35 1.46.53.76.17 1.53.17.7 0 1.05-.2.35-.2.35-.57 0-.33-.24-.5-.25-.15-.98-.24l-.42-.05q-1.6-.2-2.23-.75-.64-.55-.64-1.67 0-1.2.8-1.78.83-.58 2.5-.58.66 0 1.4.1.72.1 1.57.32z" style="-inkscape-font-specification:'sans-serif Bold';text-align:center" font-weight="bold" font-size="13.75" font-family="sans-serif" text-anchor="middle"/></svg>