<svg xmlns="http://www.w3.org/2000/svg" viewBox="0 0 130 50"><path fill="#ff7100" d="M24 3.6c8 .2 15 4.5 19 11 0 0 8.8 12.7 17 10.5L50 36s-8.5 9.3-19.3 13c-2.5.7-5.3 1.2-8 1-13-.3-23-11-22.7-24C.4 13.5 11 3.4 24 3.8"/><path fill="#fff9e1" d="M27.3 11.8l-3.7-1.2v12.7l.7-2.3c4 .3 7 3.7 7 7.7 0 4.3-3.4 7.7-7.7 7.7v2.4c1 0 1.6.7 1.6 1.6 0 .8-.7 1.5-1.6 1.5v1H32v-2c0-1.3-1.7-2-4-2.5C32.2 37 35.2 33 35.2 28c0-5.7-4.2-10.4-9.7-11.3l1.8-5.5zm-3.7-1.2l-1.8-.6-5 15.3 5.6 1.8 1.2-3V11zm0 25.8c-1.7 0-3.2-.5-4.5-1.4h4v-2.2H12V35h2c1.2 2 3 3.5 5.3 4.4-2.4.5-4 1.2-4 2.4v1.7h8.3V42c-1 0-1.6-.8-1.6-1.6 0-1 .7-1.6 1.6-1.6v-2.4z"/><g fill="#fff9e1" font-stretch="condensed" font-family="Impact" text-anchor="middle"><text x="87.1" y="-1238.6" style="-inkscape-font-specification:'Impact Condensed';text-align:center" font-size="17.6" transform="matrix(1.24 0 0 1.26 -20.82 1585.11)"><tspan x="88.9" y="-1238.6" style="-inkscape-font-specification:'Impact Condensed';text-align:center" font-size="20">21</tspan></text><text x="87.9" y="-1225.2" style="-inkscape-font-specification:'Impact Condensed';text-align:center" font-size="11.2" transform="matrix(1.24 0 0 1.26 -20.82 1585.11)"><tspan x="87.9" y="-1225.2" style="-inkscape-font-specification:'Impact Condensed';text-align:center" font-size="11">ateliers</tspan></text></g></svg>