<svg xmlns="http://www.w3.org/2000/svg" viewBox="0 0 165 46.6" preserveAspectRatio="xMinYMin meet"><path fill="#7bb4ab" d="M25.2 0c8.2 0 15.3 4 19.5 10.3 0 0 9.4 12.5 17.5 10L52.6 31s-8.2 10.2-19 14c-2.4 1-5 1.6-8 1.6-12.8 0-23.4-10.2-23.4-23 0-13 10.2-23.6 23-23.6"/><g fill="#fff9e1"><path d="M26.7 15H15.2c-2.2 0-4 1.6-4 3.6v6c0 2 1.8 3.7 4 3.7h.6l-2 5 7.2-5h5.7c2.2 0 4-1.7 4-3.7v-6c0-2-1.8-3.7-4-3.7"/><path d="M35.7 13.3h-9.5c-.4 0-1 0-1.4.3h2.8c2.5 0 4.6 2 4.6 4.2V25c2 1.3 4.7 3.3 4.7 3.4 0 0-1-3-1.8-4.2h.8c2 0 3.4-1.3 3.4-3v-5c0-1.6-1.4-3-3.3-3"/></g><g fill="#fff9e1" font-stretch="condensed" font-family="Impact" text-anchor="middle"><text x="87.1" y="-1238.6" style="-inkscape-font-specification:'Impact Condensed';text-align:center" font-size="17.6" transform="matrix(1.24 0 0 1.26 1.36 1581.68)"><tspan x="88.9" y="-1238.6" style="-inkscape-font-specification:'Impact Condensed';text-align:center" font-size="20">3</tspan></text><text x="87.9" y="-1225.2" style="-inkscape-font-specification:'Impact Condensed';text-align:center" font-size="11.2" transform="matrix(1.24 0 0 1.26 1.36 1581.68)"><tspan x="87.9" y="-1225.2" style="-inkscape-font-specification:'sans-serif Bold';text-align:center" font-size="11" font-weight="bold" font-stretch="normal" font-family="sans-serif">tables-rondes</tspan></text></g></svg>