<svg xmlns="http://www.w3.org/2000/svg" viewBox="0 0 260 260">
  <path fill="#FCA94F" d="M0 243.6c0 9 7.3 16.4 16.4 16.4h227.2c9 0 16.4-7.3 16.4-16.4V16.4c0-9-7.3-16.4-16.4-16.4H16.4C7.4 0 0 7.3 0 16.4v227.2z"/>
  <path fill="#007E5F" d="M15.7 16q11-4.6 19.7-4.6 11.3 0 18.2 6.2 7 6 7 15.8 0 7.7-4 13.2Q53 52 42.2 61q-7.6 6.4-9.6 9.4t-2.2 7.2h31.6v15h-50v-9.5q0-11.4 3.7-17.8 3.6-6.5 16-17 5.8-5 7.6-7.3 2-2.7 2-5.4 0-3.5-3-6-2.6-2.3-7-2.3-6.7 0-15.3 6.3V16zM99.2 11.4q13 0 20.8 11 8 10.7 8 31.6 0 18.3-8 29.2Q112.4 94 99.8 94q-9.3 0-16-5.8-7-5.8-10-15.4Q71 63 71 52q0-18.3 8-29.4Q86.7 11.4 99 11.4zm.3 14.8q-4.7 0-7 6.5Q90 39 90 52q0 13.6 2.4 20.4 2.4 6.8 7 6.8t7-6.6q2.2-6.6 2.2-19.8 0-13.3-2.3-20-2.2-6.6-6.8-6.6zM202.7 12.8h41.7v15h-22.7v14.6q4.6-3.8 9.4-3.8 6.5 0 12.5 6.2t6 18.5q0 13.5-7.8 22-8 8.7-20.5 8.7-8.3 0-18.5-4.4v-18q9 6.6 15.8 6.6 5 0 8.3-4 3.3-4 3.3-10.2 0-4.3-1.7-7.2-1.7-2.8-4.5-2.8t-4.6 3.7h-16.5v-45z" style="-inkscape-font-specification:AbadiMT-CondensedExtraBold" font-weight="800" font-stretch="condensed" font-family="Abadi MT Condensed Extra Bold"/>
  <path fill="#007E5F" d="M164.8 11.5v9c-.3.3-.5.6-.5 1v8.4h-.7c-.7 0-1.2.5-1.2 1.2v.7h-.5c-1 0-2 .7-2 1.7V35c0 .3.2.6.3.8-.7.4-1.2 1-1.2 2 0 0 .8 6.5 1.8 7.5v.2h.3c0 41-7.4 95-9.5 109.2v.2h-1.3c-1 0-1.7.8-1.7 1.8 0 0 .6 2.8 1.5 3.4h1c-2 11.5-6 24.3-11 36.4v.2h-4.3v10.7c-9.3 21.3-18.7 38-18.7 38l19 .3h.8c.4-15.8 12.5-28.7 27.4-28.7 15 .3 27 13.5 27 29.6h1.4l18.3.2s-9.3-17.2-18.2-38.5l-.2-.2.2-10.3-4.2-.2v-.2c-4.7-12.2-8.7-25-10.4-36.6h1c1-.5 1.6-3.4 1.6-3.4 0-1-.8-2-1.8-2h-1.5v-.4c-1.8-14.3-8.3-68.6-7.7-109.4h.4c1-1 1.7-7.5 1.7-7.5 0-.7-.7-1.4-1.4-1.6.2-.4.2-.6.2-1V34c0-.8-.8-1.7-1.7-1.7h-.5v-.6c0-.8-.4-1.4-1.2-1.4h-.5v-8.6c0-.4-.2-.7-.4-.8v-9h-.6zm-6.7 160h11.2s2.8 19.2 4.6 25.2h.2l.2.4h-10.4l-10.4-.3.2-.5c.7-3.2 4.7-20.2 5-25z"/>
</svg>
