<svg xmlns="http://www.w3.org/2000/svg" viewBox="0 0 260 260">
  <path fill="#FCA94F" d="M0 243.6c0 9 7.3 16.4 16.4 16.4h227.2c9 0 16.4-7.3 16.4-16.4V16.4c0-9-7.3-16.4-16.4-16.4H16.4C7.4 0 0 7.3 0 16.4v227.2z"/>
  <path fill="#007E5F" d="M37.3 60.4q-4.2 2-8 2-8 0-12.7-7.2-4.8-7.2-4.8-18 0-6.5 2-12.4 2-6 6.4-9.4Q24.4 12 30 12q3.4 0 7.3 1.7V25q-2.7-3-6-3-3.7 0-6 4Q23 30 23 37.8q0 6.5 2.3 10.4 2.3 4 6 4 2.7 0 6-2.6v11zM58.2 12Q67 12 72 18.5q5 6.7 5 18.3 0 11.5-5 18.5-5.2 7-13.2 7-8.3 0-13-7.3-4.4-7.2-4.4-18 0-7.4 2.2-13.2 2.2-6 6.2-9t8.4-3zM59.4 22q-3.3 0-5 4-2 4-2 10.8 0 7 1.8 11t4.8 4q3 0 4.8-4.2 2-4 2-11t-2-10.8q-1.8-3.8-4.4-3.8zM81.7 12.7H93l5.5 15.5q2.4 7 3.8 12h.5l-.2-8.3V12.6h10.7v49H102L96.4 46q-2.4-6.8-3.7-12H92l.4 8.4v19.2H81.7v-49zM140.6 58q-1.6 2.2-3.5 3.3-1.8 1-4 1-4 0-7.5-3-3.5-3.4-5.2-9.4-1.7-6-1.7-12.8 0-11.3 5-18.3 4.8-7 13.2-7 5.6 0 10 2.8v10.8Q142.7 22 139 22q-4.6 0-7 4.2-2.2 4.3-2.2 11.6 0 6.8 1.5 11 1.6 4 4.3 4 1.3 0 2-1.5.7-1.4.7-4V44h-3.7v-8.7h14v26.3h-5.4l-2.6-3.6zM154.7 12.7H172q5.7 0 9.3 3 3.6 3.2 3.6 8.8 0 4.7-2.7 8-2.5 3.3-7.7 5.2 6.5 1 8 8.4l3.3 15.6h-12.3L172 48q-.6-3.3-1.7-5-1-1.5-3.4-1.5h-1.2v20h-11V12.8zm11 9.5v10.5h2.6q2.6 0 4-1.6 1.3-1.5 1.3-4 0-2.3-1.2-3.6-1.2-1.2-3.6-1.2h-3zM190.2 12.7h27.3v9.8h-16.2v9h15V41h-15v10.6h16.2v10h-27.3v-49zM222 47q5.4 5.3 10.3 5.3 2.6 0 4.3-1.7 1.8-1.6 1.8-4 0-2-1.3-3.4-1.2-1.4-4.7-3.2-5-2.6-7.7-5.7-2.7-3-2.7-8 0-6 4-10.2 4.3-4 11.2-4 4.7 0 9.8 2.5v11.7q-4.5-4.5-8.7-4.5-2 0-3.5 1.3-1.5 1.2-1.5 3t1.2 3q1.2 1.3 4.5 2.8 5.3 2.4 8 5.6 3 3.2 3 8.6 0 6.8-5 11.6-4.7 4.8-11.6 4.8-5.3 0-11.5-3.3V47zM43.6 169.3q4.4 4 8.3 4 2 0 3.4-1.2t1.4-3q0-1.5-1-2.6-1-1.2-4-2.6-4-2-6-4.5-2.2-2.4-2.2-6.2 0-4.7 3.3-8t8.8-3.3q3.8 0 8 2v9.2q-3.7-3.5-7-3.5-1.7 0-3 1-1 1-1 2.3 0 1.4 1 2.4.8 1 3.5 2.2 4.3 2 6.5 4.4 2.2 2.5 2.2 6.7 0 5.3-3.8 9-3.8 4-9.4 4-4.3 0-9.2-2.7v-9.5zM70.2 142.4h9l4.4 12q2 5.6 3 9.5h.5v-21.6h8.5v38.4h-9L82 168.6q-2-5.4-3-9.4h-.5l.2 6.5v15h-8.5v-38.3zM98.5 142.4h9.6l4.4 25.2 4.4-25.2h9.7l-9.7 38.4h-9l-9.3-38.4zM129.6 142.4h22v7.7h-13v7.2h12v7.5h-12v8.2h13v7.8h-22v-38.4zM156 142.4h9V173h12.4v7.8H156v-38.4zM14 205.8q5.6-2.4 10-2.4 6 0 9.5 3.2 3.6 3.2 3.6 8.2 0 4-2 7-2 2.7-7.5 7.4-4 3.3-5 4.8-1 1.6-1 3.7h16.3v8h-26v-5q0-6 2-9.4 1.8-3.3 8.2-8.7 3-2.6 4-4 1-1.2 1-2.6 0-1.8-1.5-3-1.4-1.4-3.8-1.4-3.4 0-7.8 3.3v-9.2zM57.2 203.4q6.8 0 10.8 5.7 4 5.7 4 16.5 0 9.5-4 15.2-4 5.6-10.6 5.6-4.8 0-8.3-3-3.5-3-5-8t-1.5-10.8q0-9.5 4-15.3 4.2-5.8 10.7-5.8zm.2 7.7q-2.5 0-3.7 3.5-1.2 3.3-1.2 10 0 7 1.2 10.6 1.2 3.6 3.6 3.6 2.4 0 3.6-3.4 1-3.5 1-10.3 0-7-1-10.4-1.3-3.5-3.6-3.5zM87.8 204H96v41.6h-9.5v-26.4H80v-7h1.5q3 0 4.6-1.8 1.8-1.6 1.8-5v-1.3zM111 204h21.5v8h-11.8v7.5q2.4-2 5-2 3.3 0 6.4 3.2 3.2 3.3 3.2 9.6 0 7-4 11.5-4.2 4.5-10.7 4.5-4.3 0-9.6-2.3v-9.3q4.5 3.4 8 3.4 2.6 0 4.4-2 1.7-2 1.7-5.3 0-2.2-.8-3.7-1-1.5-2.4-1.5-1.5 0-2.4 2H111V204zM21.3 82.5H30l9.7 37.2h-9.4l-1.3-7.4h-7l-1.5 7.4h-9l9.8-37.2zm4 10.2l-2.2 13H28l-2.4-13zM40.3 82.5h9.3l4 24.5L58 82.5h9.3L58 119.7h-8.7l-9-37.2zM70.4 82.5h21V90H79v6.8h11.7v7.3H79v8h12.5v7.7h-21V82.5zM96 82.5h20.6V90h-12v7.7h11v7.3h-11v14.7H96V82.5z" style="-inkscape-font-specification:AbadiMT-CondensedExtraBold" font-weight="800" font-stretch="condensed" font-family="Abadi MT Condensed Extra Bold"/>
  <path fill="#007E5F" d="M214 65.4v7s-.3.3-.3.6v6.6h-.5c-.5 0-1 .4-1 1v.5h-.3c-1 0-1.5.7-1.5 1.5V84c-.4.4-.8 1-.8 1.6 0 0 .6 5 1.3 5.8v.2h.3c0 31.5-5.8 73.3-7.4 84.2h-1.2c-.7 0-1.3.8-1.3 1.6 0 0 .5 2.2 1.2 2.6h.7c-1.4 9-4.6 18.8-8.4 28v.2h-3.4v8.3c-7 16.4-14.4 29.4-14.4 29.4H192.5c.3-12.2 9.6-22 21-22h.3c11.3 0 20.6 10.2 20.8 22.6h1l14 .2s-7-13.3-14-29.7v-8l-3-.2-.2-.2c-3.6-9.4-6.7-19.3-8-28.2h1c.5-.4 1-2.6 1-2.6 0-.7-.6-1.4-1.4-1.4h-1v-.5c-1.5-11-6.5-53-6-84.4h.2c.8-.6 1.3-5.7 1.3-5.7 0-.7-.4-1.3-1-1.5.2-.2.2-.4.2-.7v-1c0-.7-.6-1.4-1.3-1.4h-.4V81c0-.7-.4-1-1-1h-.4V73c0-.3 0-.5-.3-.6v-7h-.4zm-5 123.3h8.5s2.2 15 3.5 19.5h.2v.3l-8-.2h-8l.3-.6c.5-2.4 3.6-15.5 4-19.3z"/>
</svg>
