<?xml version="1.0" encoding="UTF-8" standalone="no"?>
<!-- Created with Inkscape (http://www.inkscape.org/) -->

<svg
   xmlns:dc="http://purl.org/dc/elements/1.1/"
   xmlns:cc="http://creativecommons.org/ns#"
   xmlns:rdf="http://www.w3.org/1999/02/22-rdf-syntax-ns#"
   xmlns:svg="http://www.w3.org/2000/svg"
   xmlns="http://www.w3.org/2000/svg"
   xmlns:sodipodi="http://sodipodi.sourceforge.net/DTD/sodipodi-0.dtd"
   xmlns:inkscape="http://www.inkscape.org/namespaces/inkscape"
   id="svg2"
   version="1.1"
   inkscape:version="0.91 r13725"
   xml:space="preserve"
   width="130"
   height="50"
   viewBox="0 0 130 50"
   sodipodi:docname="subscription_workshop.svg"><metadata
     id="metadata8"><rdf:RDF><cc:Work
         rdf:about=""><dc:format>image/svg+xml</dc:format><dc:type
           rdf:resource="http://purl.org/dc/dcmitype/StillImage" /><dc:title></dc:title></cc:Work></rdf:RDF></metadata><defs
     id="defs6" /><sodipodi:namedview
     pagecolor="#ffffff"
     bordercolor="#666666"
     borderopacity="1"
     objecttolerance="10"
     gridtolerance="10"
     guidetolerance="10"
     inkscape:pageopacity="0"
     inkscape:pageshadow="2"
     inkscape:window-width="1362"
     inkscape:window-height="723"
     id="namedview4"
     showgrid="false"
     inkscape:zoom="2.4703843"
     inkscape:cx="-43.358748"
     inkscape:cy="-49.483466"
     inkscape:window-x="0"
     inkscape:window-y="0"
     inkscape:window-maximized="1"
     inkscape:current-layer="g10"
     fit-margin-top="0"
     fit-margin-left="0"
     fit-margin-right="0"
     fit-margin-bottom="0" /><g
     id="g10"
     inkscape:groupmode="layer"
     inkscape:label="maquette_desktop"
     transform="matrix(1.25,0,0,-1.25,-364.82073,1584.9699)"><g
       id="g4176"
       transform="matrix(1.0666716,0,0,1.0666716,-50.52411,-80.489376)"><path
         d="m 338.88121,1261.5103 c 6.054,-0.168 11.3,-3.406 14.29,-8.181 0,0 6.674,-9.597 12.809,-7.978 l -7.488,-7.731 c 0,0 -6.367,-7.375 -14.479,-10.015 -1.909,-0.649 -3.963,-0.977 -6.097,-0.918 -9.616,0.266 -17.195,8.278 -16.929,17.894 0.267,9.616 8.278,17.195 17.894,16.929"
         style="fill:#ff7100;fill-opacity:1;fill-rule:nonzero;stroke:none"
         id="path788"
         inkscape:connector-curvature="0" /><path
         d="m 341.45711,1255.3468 -2.777,0.895 0,-9.505 0.547,1.696 c 2.959,-0.262 5.278,-2.746 5.278,-5.772 0,-3.201 -2.595,-5.796 -5.797,-5.796 l -0.028,0 0,-1.795 c 0.65,0 1.176,-0.526 1.176,-1.175 0,-0.648 -0.526,-1.174 -1.176,-1.174 l 0,-1.202 6.368,0 0,1.311 c 0,0.869 -1.319,1.457 -3.105,1.766 3.197,1.283 5.455,4.41 5.455,8.065 0,4.314 -3.146,7.892 -7.268,8.571 l 1.327,4.115 z m -2.777,0.895 -1.355,0.437 -3.701,-11.48 4.131,-1.332 0.925,2.87 0,9.505 z m 0,-19.377 c -1.259,0.01 -2.424,0.413 -3.372,1.101 l 2.58,0 0,1.584 -4.073,0 -3.223,0 -0.63,0 0,-1.584 1.433,0 c 0.97,-1.507 2.393,-2.694 4.076,-3.37 -1.785,-0.309 -3.104,-0.897 -3.104,-1.766 l 0,-1.311 6.313,0 0,1.202 c -0.649,0 -1.175,0.526 -1.175,1.174 0,0.649 0.526,1.175 1.175,1.175 l 0,1.795 z"
         style="fill:#fff9e1;fill-opacity:1;fill-rule:nonzero;stroke:none"
         id="path852"
         inkscape:connector-curvature="0" /></g><g
       id="g4196"
       transform="translate(275.2,-0.10927736)"><text
         y="-1238.5701"
         x="87.136246"
         id="text4198"
         style="font-style:normal;font-variant:normal;font-weight:normal;font-stretch:condensed;font-size:17.62253571px;font-family:Impact;-inkscape-font-specification:'Impact Condensed';text-align:center;writing-mode:lr-tb;text-anchor:middle;fill:#fff9e1;fill-opacity:1;fill-rule:nonzero;stroke:none"
         transform="scale(0.99454472,-1.0054852)"><tspan
           y="-1238.5701"
           style="font-style:normal;font-variant:normal;font-weight:normal;font-stretch:condensed;font-size:20px;font-family:Impact;-inkscape-font-specification:'Impact Condensed';text-align:center;text-anchor:middle"
           id="tspan4200"
           sodipodi:role="line"
           x="88.894058">21 </tspan></text>
<text
         y="-1225.1836"
         x="87.941109"
         id="text4202"
         style="font-style:normal;font-variant:normal;font-weight:normal;font-stretch:condensed;font-size:11.16093349px;font-family:Impact;-inkscape-font-specification:'Impact Condensed';text-align:center;writing-mode:lr-tb;text-anchor:middle;fill:#fff9e1;fill-opacity:1;fill-rule:nonzero;stroke:none"
         transform="scale(0.99454947,-1.0054804)"><tspan
           y="-1225.1836"
           x="87.941109"
           style="font-style:normal;font-variant:normal;font-weight:normal;font-stretch:condensed;font-size:11px;font-family:Impact;-inkscape-font-specification:'Impact Condensed';text-align:center;text-anchor:middle"
           id="tspan4204"
           sodipodi:role="line">ateliers</tspan></text>
</g></g></svg>