<?xml version="1.0" encoding="UTF-8" standalone="no"?>
<!-- Created with Inkscape (http://www.inkscape.org/) -->

<svg
   xmlns:dc="http://purl.org/dc/elements/1.1/"
   xmlns:cc="http://creativecommons.org/ns#"
   xmlns:rdf="http://www.w3.org/1999/02/22-rdf-syntax-ns#"
   xmlns:svg="http://www.w3.org/2000/svg"
   xmlns="http://www.w3.org/2000/svg"
   xmlns:sodipodi="http://sodipodi.sourceforge.net/DTD/sodipodi-0.dtd"
   xmlns:inkscape="http://www.inkscape.org/namespaces/inkscape"
   id="svg2"
   version="1.1"
   inkscape:version="0.91 r13725"
   xml:space="preserve"
   width="130"
   height="50"
   viewBox="0 0 130 50.000001"
   sodipodi:docname="subscription_session.svg"><metadata
     id="metadata8"><rdf:RDF><cc:Work
         rdf:about=""><dc:format>image/svg+xml</dc:format><dc:type
           rdf:resource="http://purl.org/dc/dcmitype/StillImage" /><dc:title></dc:title></cc:Work></rdf:RDF></metadata><defs
     id="defs6" /><sodipodi:namedview
     pagecolor="#ffffff"
     bordercolor="#666666"
     borderopacity="1"
     objecttolerance="10"
     gridtolerance="10"
     guidetolerance="10"
     inkscape:pageopacity="0"
     inkscape:pageshadow="2"
     inkscape:window-width="1362"
     inkscape:window-height="723"
     id="namedview4"
     showgrid="false"
     inkscape:zoom="2.4703843"
     inkscape:cx="171.5258"
     inkscape:cy="-46.208078"
     inkscape:window-x="0"
     inkscape:window-y="0"
     inkscape:window-maximized="1"
     inkscape:current-layer="g10"
     fit-margin-top="0"
     fit-margin-left="0"
     fit-margin-right="0"
     fit-margin-bottom="0" /><g
     id="g10"
     inkscape:groupmode="layer"
     inkscape:label="maquette_desktop"
     transform="matrix(1.25,0,0,-1.25,-24.878099,1584.9402)"><g
       id="g4163"
       transform="matrix(1.0666552,0,0,1.0666552,-1.3266037,-80.467709)"><path
         d="m 37.215963,1261.5403 c 6.064,0.045 11.428,-3.012 14.588,-7.686 0,0 7.016,-9.37 13.099,-7.534 l -7.223,-7.999 c 0,0 -6.113,-7.605 -14.139,-10.531 -1.887,-0.717 -3.931,-1.117 -6.069,-1.133 -9.632,-0.071 -17.498,7.681 -17.569,17.313 -0.071,9.633 7.681,17.499 17.313,17.57"
         style="fill:#fca94f;fill-opacity:1;fill-rule:nonzero;stroke:none"
         id="path764"
         inkscape:connector-curvature="0" /><g
         transform="translate(-1.295345,-3.1736363e-7)"
         style="fill:#fff9e1;fill-opacity:1"
         id="g4154"><path
           inkscape:connector-curvature="0"
           id="path800"
           style="fill:#fff9e1;fill-opacity:1;fill-rule:nonzero;stroke:none"
           d="m 45.225363,1252.7164 c -2.774,2.499 -6.963,2.185 -9.358,-0.703 -2.393,-2.887 -2.085,-7.254 0.688,-9.753 2.774,-2.499 6.963,-2.185 9.357,0.703 2.395,2.888 2.087,7.254 -0.687,9.753 m -7.861,-9.481 c -2.256,2.033 -2.507,5.585 -0.559,7.934 1.947,2.348 5.355,2.604 7.611,0.572 2.255,-2.033 2.507,-5.585 0.559,-7.934 -1.947,-2.348 -5.356,-2.603 -7.611,-0.572" /><path
           inkscape:connector-curvature="0"
           id="path812"
           style="fill:#fff9e1;fill-opacity:1;fill-rule:nonzero;stroke:none"
           d="m 33.485863,1237.127 -1.358,1.223 4.218,5.088 1.358,-1.224 -4.218,-5.087 z" /><path
           inkscape:connector-curvature="0"
           id="path824"
           style="fill:#fff9e1;fill-opacity:1;fill-rule:nonzero;stroke:none"
           d="m 31.861763,1234.311 c -0.517,-0.624 -1.424,-0.692 -2.023,-0.152 -0.599,0.54 -0.666,1.485 -0.149,2.109 l 3.984,4.804 c 0.517,0.624 1.424,0.692 2.023,0.152 0.599,-0.539 0.666,-1.484 0.148,-2.109 l -3.983,-4.804 z" /></g></g><g
       id="g4180"
       transform="translate(3.2,-0.11516885)"><text
         y="-1238.5701"
         x="87.136246"
         id="text854"
         style="font-style:normal;font-variant:normal;font-weight:normal;font-stretch:condensed;font-size:17.62253571px;font-family:Impact;-inkscape-font-specification:'Impact Condensed';text-align:center;writing-mode:lr-tb;text-anchor:middle;fill:#fff9e1;fill-opacity:1;fill-rule:nonzero;stroke:none"
         transform="scale(0.99454472,-1.0054852)"><tspan
           style="font-style:normal;font-variant:normal;font-weight:normal;font-stretch:condensed;font-size:20px;font-family:Impact;-inkscape-font-specification:'Impact Condensed';text-align:center;text-anchor:middle"
           id="tspan856"
           sodipodi:role="line"
           y="-1238.5701"
           x="78.741135 87.728622 96.71611">35 </tspan></text>
<text
         y="-1225.1836"
         x="87.941109"
         id="text858"
         style="font-style:normal;font-variant:normal;font-weight:normal;font-stretch:condensed;font-size:11.16093349px;font-family:Impact;-inkscape-font-specification:'Impact Condensed';text-align:center;writing-mode:lr-tb;text-anchor:middle;fill:#fff9e1;fill-opacity:1;fill-rule:nonzero;stroke:none"
         transform="scale(0.99454947,-1.0054804)"><tspan
           style="font-style:normal;font-variant:normal;font-weight:normal;font-stretch:condensed;font-size:11px;font-family:Impact;-inkscape-font-specification:'Impact Condensed';text-align:center;text-anchor:middle"
           id="tspan860"
           sodipodi:role="line"
           y="-1225.1836"
           x="69.072762 73.604103 78.838585 83.369926 87.901268 90.803108 96.271965 101.61805">sessions</tspan></text>
</g></g></svg>