<?xml version="1.0" encoding="UTF-8" standalone="no"?>
<!-- Created with Inkscape (http://www.inkscape.org/) -->

<svg
   xmlns:dc="http://purl.org/dc/elements/1.1/"
   xmlns:cc="http://creativecommons.org/ns#"
   xmlns:rdf="http://www.w3.org/1999/02/22-rdf-syntax-ns#"
   xmlns:svg="http://www.w3.org/2000/svg"
   xmlns="http://www.w3.org/2000/svg"
   xmlns:sodipodi="http://sodipodi.sourceforge.net/DTD/sodipodi-0.dtd"
   xmlns:inkscape="http://www.inkscape.org/namespaces/inkscape"
   id="svg2"
   version="1.1"
   inkscape:version="0.91 r13725"
   xml:space="preserve"
   width="130"
   height="50"
   viewBox="0 0 130 50.000001"
   sodipodi:docname="subscription_round_table.svg"><metadata
     id="metadata8"><rdf:RDF><cc:Work
         rdf:about=""><dc:format>image/svg+xml</dc:format><dc:type
           rdf:resource="http://purl.org/dc/dcmitype/StillImage" /><dc:title></dc:title></cc:Work></rdf:RDF></metadata><defs
     id="defs6" /><sodipodi:namedview
     pagecolor="#ffffff"
     bordercolor="#666666"
     borderopacity="1"
     objecttolerance="10"
     gridtolerance="10"
     guidetolerance="10"
     inkscape:pageopacity="0"
     inkscape:pageshadow="2"
     inkscape:window-width="1362"
     inkscape:window-height="723"
     id="namedview4"
     showgrid="false"
     inkscape:zoom="2.4703843"
     inkscape:cx="134.66575"
     inkscape:cy="-47.834624"
     inkscape:window-x="0"
     inkscape:window-y="0"
     inkscape:window-maximized="1"
     inkscape:current-layer="g10"
     fit-margin-top="0"
     fit-margin-left="0"
     fit-margin-right="0"
     fit-margin-bottom="0" /><g
     id="g10"
     inkscape:groupmode="layer"
     inkscape:label="maquette_desktop"
     transform="matrix(1.25,0,0,-1.25,-184.80164,1584.9476)"><g
       id="g4170"
       transform="matrix(1.0666552,0,0,1.0666552,-26.23002,-80.461806)"><path
         d="m 180.50711,1261.5403 c 6.064,0.044 11.428,-3.012 14.588,-7.686 0,0 7.016,-9.37 13.099,-7.534 l -7.223,-7.999 c 0,0 -6.113,-7.605 -14.139,-10.531 -1.887,-0.717 -3.931,-1.117 -6.069,-1.133 -9.632,-0.071 -17.498,7.681 -17.569,17.313 -0.071,9.633 7.681,17.499 17.313,17.57"
         style="fill:#7bb4ab;fill-opacity:1;fill-rule:nonzero;stroke:none"
         id="path776"
         inkscape:connector-curvature="0" /><g
         transform="translate(-1.9430176,-3.026576)"
         style="fill:#fff9e1;fill-opacity:1"
         id="g4159"><path
           inkscape:connector-curvature="0"
           id="path836"
           style="fill:#fff9e1;fill-opacity:1;fill-rule:nonzero;stroke:none"
           d="m 183.54221,1253.4449 -8.654,0 c -1.656,0 -2.999,-1.242 -2.999,-2.776 l 0,-4.483 c 0,-1.534 1.343,-2.776 2.999,-2.776 l 0.448,0 c -0.468,-1.172 -1.566,-3.915 -1.541,-3.847 0.025,0.072 3.987,2.827 5.456,3.847 l 4.291,0 c 1.656,0 3,1.242 3,2.776 l 0,4.483 c 0,1.534 -1.344,2.776 -3,2.776" /><path
           inkscape:connector-curvature="0"
           id="path840"
           style="fill:#fff9e1;fill-opacity:1;fill-rule:nonzero;stroke:none"
           d="m 190.29441,1254.6891 -7.08,0 c -0.393,0 -0.764,-0.088 -1.094,-0.241 l 2.047,0 c 1.895,0 3.433,-1.423 3.433,-3.177 l 0,-5.13 c 0,-0.088 -0.01,-0.175 -0.015,-0.259 1.449,-1.007 3.587,-2.502 3.604,-2.55 0.021,-0.056 -0.877,2.188 -1.261,3.147 l 0.366,0 c 1.356,0 2.454,1.016 2.454,2.272 l 0,3.667 c 0,1.254 -1.098,2.271 -2.454,2.271" /></g></g><g
       transform="translate(131.2,-0.10927736)"
       id="g4186"><text
         transform="scale(0.99454472,-1.0054852)"
         style="font-style:normal;font-variant:normal;font-weight:normal;font-stretch:condensed;font-size:17.62253571px;font-family:Impact;-inkscape-font-specification:'Impact Condensed';text-align:center;writing-mode:lr-tb;text-anchor:middle;fill:#fff9e1;fill-opacity:1;fill-rule:nonzero;stroke:none"
         id="text4188"
         x="87.136246"
         y="-1238.5701"><tspan
           x="88.894058"
           sodipodi:role="line"
           id="tspan4190"
           style="font-style:normal;font-variant:normal;font-weight:normal;font-stretch:condensed;font-size:20px;font-family:Impact;-inkscape-font-specification:'Impact Condensed';text-align:center;text-anchor:middle"
           y="-1238.5701">3 </tspan></text>
<text
         transform="scale(0.99454947,-1.0054804)"
         style="font-style:normal;font-variant:normal;font-weight:normal;font-stretch:condensed;font-size:11.16093349px;font-family:Impact;-inkscape-font-specification:'Impact Condensed';text-align:center;writing-mode:lr-tb;text-anchor:middle;fill:#fff9e1;fill-opacity:1;fill-rule:nonzero;stroke:none"
         id="text4192"
         x="87.941109"
         y="-1225.1836"><tspan
           sodipodi:role="line"
           id="tspan4194"
           style="font-style:normal;font-variant:normal;font-weight:normal;font-stretch:condensed;font-size:11px;font-family:Impact;-inkscape-font-specification:'Impact Condensed';text-align:center;text-anchor:middle"
           x="87.941109"
           y="-1225.1836">tables-rondes</tspan></text>
</g></g></svg>