<svg xmlns="http://www.w3.org/2000/svg" viewBox="0 0 300 141.147" preserveAspectRatio="xMaxYMax meet"><path fill="#7bb4ab" d="M32.85 122.54l14.16-19.17 11.045 19.17H32.85zm35.93 18.607h17.623L57.61 93.267H36.874L0 141.148h19.1l7.828-10.593h35.747l6.105 10.593zM128.004 141.147l27.918-47.88h66.888l-4.66 8.013h-48.32l-6.525 10.876h46.89l-4.658 8.012h-47.04l-7.776 12.964h52.515l-4.66 8.015h-70.57zM209.004 141.147l27.918-47.88H300l-4.66 8.013h-44.43l-6.703 11.5h43.456l-4.66 8.015h-43.47l-11.868 20.352h-18.66z"/><path fill="#00785f" d="M105.434 0v19.203c7.175-3.072 16.306-6.1 27.828-8.552l9.365-4.595-1.977 4.596s2.576 1.17 3.696 4.68l2.66 3.257 1.892 4.177 10.394 15.12-.6 1.006-.69 3.173-1.803 1.59h-2.32l-1.29-1.254-1.373 1.168-3.35-.416-1.89-2.926-9.364-4.344s-5.842 1.17-8.505-2.423l-4.126 3.758s-6.79 14.157-17.71 20.798h58.818V0h-59.656z"/><path fill="#008fd3" d="M68.443 6.138l9.233 4.596s15.896 3.09 27.664 8.437c0 0-12.8 5.098-21.948 13.745 0 0-2.06 4.01-9.023 3.05l-9.406 4.344-1.804 2.966-3.48.334-1.333-1.127-1.245 1.253-2.406-.085-1.758-1.545-.646-3.047-.687-1.13 10.397-14.996 1.974-4.344 2.578-3.093s.945-3.425 3.737-4.845l-1.847-4.512z"/><path fill="#00785f" d="M117.9 140.91H95.7L48.995 61.096h19.887l38.187 69.674h.352l39.15-69.674h18.647L117.9 140.91z"/><path fill="#008fd3" d="M100.187 66.975s46.12-5.647 6.677 22.87c0 0 23.205-21.756-6.677-22.87"/><path fill="#008fd3" d="M118.54 108.64s-46.12 5.65-6.676-22.87c0 0-23.205 21.757 6.676 22.87M105.66 32.928c.804-.64-45.92 29.747-3.667 34.14 0 0-28.2-8.88 3.666-34.14"/><path fill="#008fd3" d="M100.808 37.16l3.02-7.62 10.7-.916-5.076 8.718-8.644-.183z"/></svg>
