<svg xmlns="http://www.w3.org/2000/svg" viewBox="0 0 247.62 167.45">
  <path fill="#fff8e4" d="M.3 54.2h5.06q4.92 0 6.64.45 1.74.45 2.64 1.48.9 1.03 1.13 2.3.23 1.26.23 4.97v9.14q0 3.5-.34 4.7-.32 1.18-1.14 1.85-.83.6-2.03.9-1.3.2-3.7.2H.3v-26zm6.77 4.46v17.16q1.47 0 1.8-.58.34-.6.34-3.2V61.9q0-1.77-.1-2.27t-.5-.73q-.4-.24-1.5-.24zm26.97 10.82q0 3.93-.2 5.57-.17 1.63-1.16 2.98-.96 1.35-2.62 2.08-1.66.8-3.87.8-2.1 0-3.8-.7-1.7-.7-2.7-2-1-1.3-1.2-3-.2-1.6-.2-5.6V65q0-3.92.1-5.55.2-1.64 1.1-3 1-1.35 2.6-2.07 1.7-.73 3.9-.73 2.1 0 3.7.7 1.6.67 2.7 2.04 1 1.3 1.2 2.9.2 1.6.2 5.6v4.4zm-6.8-8.58q0-1.82-.2-2.32-.2-.5-.82-.5-.53 0-.82.4-.27.4-.27 2.42v12.18q0 2.28.17 2.8.2.54.87.54.7 0 .9-.6.18-.62.18-2.93v-12zm25.16 4.68h-6.8v-4.55q0-1.98-.22-2.46-.2-.5-.95-.5-.83 0-1.06.6-.22.6-.22 2.57v12.12q0 1.9.22 2.48.23.58 1.02.58.7 0 .9-.58t.2-2.72v-3.27h6.8v1q0 4.06-.6 5.75-.6 1.7-2.6 2.96-2 1.28-4.8 1.28-3 0-5-1.08t-2.6-3q-.7-1.9-.7-5.74V63.4q0-2.82.2-4.22.2-1.42 1.1-2.72.9-1.3 2.6-2.05 1.7-.7 3.9-.7 3 0 5 1.2t2.6 2.9q.6 1.8.6 5.4v2.5zM71 54.2l-3.88 11.78 4.25 14.3h-7L61.6 69.1v11.2h-6.78V54.2h6.78v10.14l3-10.14H71zm15.9 7.9h-6.3v-1.94q0-1.35-.23-1.72-.24-.37-.8-.37-.62 0-.94.5-.3.5-.3 1.5 0 1.32.35 1.98.34.66 1.92 1.6 4.53 2.68 5.7 4.4 1.18 1.73 1.18 5.57 0 2.78-.66 4.1-.65 1.33-2.52 2.23-1.87.9-4.35.9-2.72 0-4.65-1.05-1.92-1.03-2.52-2.62-.6-1.6-.6-4.53v-1.7h6.3v3.17q0 1.46.27 1.88.27.42.95.42.67 0 1-.53.33-.6.33-1.6 0-2.3-.63-3-.64-.7-3.17-2.4t-3.35-2.5q-.82-.8-1.37-2.1-.5-1.4-.5-3.4 0-3 .8-4.4.8-1.4 2.5-2.2 1.7-.8 4.1-.8 2.7 0 4.5.8 1.9.8 2.5 2.1.6 1.2.6 4.4V62zm8.5-7.9h5.1q4.9 0 6.62.45 1.74.45 2.65 1.48.9 1.03 1.13 2.3.22 1.26.22 4.97v9.14q0 3.5-.34 4.7-.32 1.18-1.14 1.85-.82.6-2.03.9-1.2.2-3.6.2h-8.6v-26zm6.8 4.46v17.16q1.46 0 1.8-.58.34-.6.34-3.2V61.9q0-1.77-.12-2.27-.1-.5-.5-.73-.4-.24-1.53-.24zm11.46-4.46h11.3v5.22h-4.52v4.95h4.24v4.96h-4.24v5.74h4.98v5.22h-11.76V54.2z" style="-inkscape-font-specification:Impact" font-family="Impact"/>
  <g fill="#fff8e4">
    <path d="M119.54 98.34h6.84q2.77 0 4.25.43 1.5.44 2.24 1.26.76.82 1 2 .3 1.16.3 3.6v2.28q0 2.5-.53 3.7-.5 1.2-1.9 1.8-1.37.6-3.6.6h-1.8v10.5h-6.8V98.4zm6.8 4.46v6.64l.5.02q.92 0 1.28-.45.37-.4.37-1.9V105q0-1.34-.5-1.74-.4-.4-1.8-.4zm71.38-4.46h4.8q4.8 0 6.5.37 1.7.4 2.77 1.9 1 1.6 1 4.9 0 3.1-.8 4.1-.8 1.1-3 1.3 2 .5 2.7 1.4.7.9.8 1.6.1.7.1 3.9v6.9h-6.3V116q0-2.1-.4-2.6t-1.8-.5v11.72h-6.8V98.4zm6.78 4.46v5.8q1.15 0 1.6-.3.47-.33.47-2.05v-1.43q0-1.24-.45-1.63-.44-.4-1.62-.4zm21.42-4.46v26.1h-6.78v-26.1h6.78zm20.68 7.9h-6.3v-1.94q0-1.35-.23-1.72-.24-.37-.8-.37-.62 0-.94.5-.3.5-.3 1.6 0 1.3.35 2 .34.7 1.92 1.6 4.52 2.7 5.7 4.4 1.18 1.8 1.18 5.6 0 2.8-.66 4.1-.65 1.4-2.52 2.3-1.87.9-4.35.9-2.72 0-4.66-1t-2.6-2.6q-.6-1.6-.6-4.5v-1.7h6.3v3.2q0 1.5.2 1.9.3.4.9.4.6 0 1-.5.3-.5.3-1.6 0-2.3-.7-3-.7-.7-3.2-2.3-2.5-1.6-3.4-2.4-.9-.7-1.4-2.1-.6-1.3-.6-3.4 0-3 .7-4.4.8-1.3 2.5-2.1t4.1-.8q2.6 0 4.5.9t2.5 2.2q.6 1.3.6 4.4v1.1z" style="-inkscape-font-specification:Impact" font-family="Impact"/>
    <path d="M166.17 0l-.04 4.85c-.15.07-.25.22-.25.4l-.04 4.52h-.3c-.37 0-.68.3-.68.7 0 .1.02.22.07.33h-.3c-.53 0-.96.43-.97.97v.7c0 .15.04.3.1.44-.37.2-.64.5-.65 1 0 0 .4 3.5.9 4 .1 0 .1.1.1.1h.1c0 21.7-4 50.4-5.1 57.9v.1h-.7c-.5 0-.9.5-.9 1 0 0 .3 1.5.8 1.8h.5c-1 6.1-3.2 12.9-5.8 19.3v.1h-2.3v5.7c-4.9 11.3-9.9 20.2-9.9 20.2l10 .1h.5c.2-8.4 6.6-15.2 14.5-15.2h.1c7.8.1 14.2 7.1 14.3 15.6h.7l9.7.1s-4.9-9.1-9.6-20.4l-.1-.1.08-5.5-2.2-.1-.04-.1c-2.5-6.5-4.6-13.3-5.5-19.4h.57c.45-.3.8-1.8.8-1.8 0-.5-.4-1-.95-1h-.8V76c-.94-7.53-4.4-36.3-4.05-57.94h.1l.07-.04c.5-.4.9-3.9.9-3.9 0-.42-.3-.8-.66-.93.1-.2.1-.3.1-.5V12c0-.5-.4-.96-.9-.96h-.3c0-.1.06-.23.06-.35 0-.4-.3-.7-.7-.7h-.3V5.4c0-.2-.1-.37-.2-.4V.2h-.3zm-3.55 84.8l2.9.03h.04l2.9.04s1.53 10.15 2.45 13.3h.1l.1.22-5.5-.1-5.5-.1.1-.3c.4-1.7 2.5-10.7 2.7-13.3z"/>
  </g>
  <path fill="#fff8e4" d="M14.2 142.26v24.7H8.05v-1.46q-.88.92-1.86 1.38-1 .45-2.1.45-1.5 0-2.5-.74-1.1-.8-1.4-1.8-.3-1-.3-3.3V152q0-2.3.3-3.3t1.4-1.7q1-.75 2.5-.75 1.2 0 2.1.4 1 .43 1.7 1.25v-5.74h6.2zm-6.16 9.55q0-1.1-.2-1.4-.18-.4-.74-.4-.55 0-.75.4-.2.4-.2 1.5v10q0 1.3.2 1.7.18.4.7.4.6 0 .8-.4.2-.4.2-2.1V152zm22.5-5V167H24.3l.1-1.7q-.64 1-1.58 1.53-.93.5-2.16.5-1.38 0-2.3-.5-.92-.47-1.36-1.28-.42-.8-.53-1.68-.1-.9-.1-3.5V146.7h6.16v13.8q0 2.35.15 2.8.16.44.8.44.68 0 .8-.46.14-.47.14-2.96V146.7h6.16zm19.3 6.3q1.4.5 2.1 1.6.66 1.1.66 5.1 0 2.9-.67 4.6-.67 1.6-2.32 2.5-1.6.9-4.2.9-2.9 0-4.6-1-1.6-1-2.2-2.4-.5-1.4-.5-5v-1.9h6.2v4q0 1.6.2 2.1t.9.5 1-.5.3-2.8V159q0-1.43-.3-2.1-.3-.65-.9-.85-.6-.2-2.4-.3V152q2.2 0 2.7-.16.6-.2.8-.73.3-.6.3-1.8v-1.4q0-1.3-.3-1.7-.2-.4-.8-.4-.6 0-.9.5-.2.5-.2 1.9v2h-6.2V148q0-3.5 1.7-4.73 1.6-1.27 5.2-1.27 4.4 0 6 1.7t1.6 4.8q0 2.05-.5 3-.5.9-2 1.7zm15.98 1.6h-5.8v-1.3q0-2.3.55-3.6.55-1.3 2.18-2.2 1.63-1 4.24-1 3.1 0 4.7 1.1t1.9 2.7q.3 1.6.3 6.7v10h-6v-1.8q-.6 1.1-1.5 1.7-.9.6-2.1.6-1.6 0-3-.9t-1.4-4V161q0-2.3.7-3.1.7-.83 3.5-1.93 3-1.2 3.2-1.6.2-.4.2-1.65 0-1.6-.3-2.07-.3-.5-.8-.5-.7 0-.8.5-.2.4-.2 2.1v2.1zm1.95 2.8q-1.48 1.1-1.72 1.8-.23.8-.23 2.1 0 1.6.2 2.1t.82.5q.58 0 .75-.3.1-.4.1-1.9v-4.1zm22.4-10.6V167H83.9l.1-1.7q-.63 1-1.58 1.53-.93.5-2.15.5-1.4 0-2.3-.5-.92-.47-1.36-1.28-.4-.8-.5-1.68-.1-.9-.1-3.5V146.7h6.2v13.8q0 2.35.2 2.8.2.44.8.44.7 0 .8-.46.2-.47.2-2.96V146.7h6.2zm21.16-4.4v4h-7.65v4.2q1.44-1.6 3.7-1.6 2.55 0 3.84 1.4 1.3 1.4 1.3 5.5v3.5q0 2.6-.25 3.9-.24 1.3-1.06 2.3-.8 1.1-2.3 1.6-1.4.6-3.5.6-2.4 0-4.2-.8-1.8-.8-2.6-2.5-.7-1.6-.7-5.1V158h6.1v1.57q0 2.4.2 3.4t1.2 1q.5 0 .7-.3.3-.3.3-.64.1-.32.1-2.9v-5q0-1.4-.3-1.9t-.9-.5q-.4 0-.7.28-.3.3-.4.6-.1.3-.1 1.4H98l.27-12.4h13.24zm15.1 4.5l-.1 1.9q.66-1.1 1.62-1.6.98-.5 2.24-.5 1.5 0 2.6.8 1 .8 1.2 1.9.3 1.2.3 3.8v14h-6.2V153q0-2.1-.2-2.55-.2-.4-.8-.4t-.8.6q-.2.5-.2 2.8V167H120v-20.26h6.3zm24 7.1v4.9q0 2.7-.26 4-.28 1.3-1.18 2.4-.9 1.1-2.4 1.6-1.4.6-3.3.6-2.1 0-3.5-.4-1.4-.5-2.2-1.4-.8-.9-1.1-2.2-.4-1.3-.4-3.8v-5.2q0-2.8.6-4.4.6-1.6 2.2-2.5t4-.9q2 0 3.5.7 1.5.6 2.3 1.6.8 1 1.1 2.1.3 1.1.3 3.2zm-6.15-1.5q0-1.5-.17-1.9-.1-.4-.7-.4-.5 0-.7.4-.2.4-.2 2v9.2q0 1.4.2 1.8.2.5.7.5t.7-.4q.2-.4.2-1.7v-9.4zm20.92-5.6l-2.88 20.2h-8.04l-3.1-20.2h5.5l1.74 14.8q.2-1.6.67-7.9.2-3.5.6-6.8h5.5zm14.88 10.5h-7.98v4.4q0 1.4.2 1.8.2.4.76.4.7 0 .93-.5.2-.5.2-2v-2.7h5.8v1.5q0 1.9-.3 2.9t-1.1 2.2q-.9 1.2-2.2 1.7-1.4.6-3.4.6t-3.5-.5q-1.5-.6-2.4-1.5-.8-1-1.1-2.2-.4-1.2-.4-3.4v-6q0-2.65.7-4.17.7-1.55 2.4-2.35 1.6-.82 3.7-.82 2.6 0 4.2 1 1.7.95 2.4 2.6.6 1.6.6 4.55v2.7zm-6.18-3.3v-1.4q0-1.6-.17-2-.16-.4-.68-.4-.64 0-.8.4-.15.4-.15 2.1v1.5h1.8zm14.28-7.1l-.1 1.9q.7-1.1 1.7-1.7 1-.6 2.26-.6 2.47 0 3.9 2.3.77-1.1 1.74-1.7.98-.6 2.17-.6 1.57 0 2.6.8t1.32 1.9q.3 1.1.3 3.6v14h-6v-13.2q0-2.6-.17-3.2-.17-.6-.8-.6-.67 0-.87.6-.18.6-.18 3.3V167h-5.98v-12.9q0-2.97-.15-3.57-.14-.6-.8-.6-.4 0-.7.33-.3.3-.32.76-.03.44-.03 1.9v14.05h-5.98v-20.25h6zm24.17-4.5v5.9q.76-.9 1.7-1.3.94-.5 2.04-.5 1.2 0 2.1.4.9.4 1.4 1.1.5.8.5 1.5.1.7.1 2.9v9.1q0 2.2-.3 3.3-.3 1.1-1.4 1.9-1.1.8-2.6.8-1.1 0-2-.5-1-.4-1.7-1.4l-.4 1.6H206v-24.7h6.2zm1.87 10.2q0-1.5-.2-2t-.77-.5q-.57 0-.73.5-.17.5-.17 2.1v8.8q0 1.7.18 2.1.2.5.76.5t.7-.5q.2-.5.2-2.3V153zm14.38-5.8l-.25 2.7q1.35-2.8 3.9-3v7.2q-1.7 0-2.5.4t-.97 1.2q-.18.8-.18 3.8v8h-6.17V147h6.17zm19.02 10.5h-7.98v4.4q0 1.4.2 1.8.2.4.76.4.7 0 .93-.5.25-.5.25-2v-2.7h5.84v1.5q0 1.9-.24 2.9-.23 1-1.1 2.2-.87 1.2-2.22 1.8-1.32.56-3.34.56-1.95 0-3.45-.5-1.5-.52-2.33-1.5-.82-1-1.14-2.2-.32-1.2-.32-3.43v-6q0-2.7.7-4.2.73-1.54 2.36-2.34t3.76-.8q2.6 0 4.27 1 1.7 1 2.36 2.6.7 1.6.7 4.6v2.7zm-6.18-3.3v-1.4q0-1.5-.17-2-.17-.4-.68-.4-.7 0-.8.4-.2.4-.2 2.1v1.5h1.8z" style="-inkscape-font-specification:Impact" font-family="Impact"/>
</svg>
